G04*
G04 #@! TF.GenerationSoftware,Altium Limited,Altium Designer,20.0.2 (26)*
G04*
G04 Layer_Color=32896*
%FSLAX25Y25*%
%MOIN*%
G70*
G01*
G75*
%ADD10C,0.01000*%
%ADD43C,0.00600*%
%ADD59C,0.00787*%
%ADD60C,0.01181*%
%ADD61C,0.00100*%
%ADD62C,0.00500*%
G36*
X-94617Y79850D02*
X-94967Y79850D01*
Y81150D01*
X-94617Y81150D01*
Y79850D01*
D02*
G37*
G36*
X-96167D02*
X-96517D01*
Y81150D01*
X-96167D01*
Y79850D01*
D02*
G37*
G36*
X-99617D02*
X-99967Y79850D01*
Y81150D01*
X-99617Y81150D01*
Y79850D01*
D02*
G37*
G36*
X-101167D02*
X-101517D01*
Y81150D01*
X-101167D01*
Y79850D01*
D02*
G37*
G36*
X-78600Y73800D02*
X-80400D01*
Y74150D01*
X-78600D01*
Y73800D01*
D02*
G37*
G36*
X-83100D02*
X-84900D01*
Y74150D01*
X-83100D01*
Y73800D01*
D02*
G37*
G36*
X-88100D02*
X-89900D01*
Y74150D01*
X-88100D01*
Y73800D01*
D02*
G37*
G36*
X-78600Y72850D02*
X-80400D01*
Y73200D01*
X-78600D01*
Y72850D01*
D02*
G37*
G36*
X-83100D02*
X-84900D01*
Y73200D01*
X-83100D01*
Y72850D01*
D02*
G37*
G36*
X-88100D02*
X-89900D01*
Y73200D01*
X-88100D01*
Y72850D01*
D02*
G37*
G36*
X-76350Y66600D02*
X-76700D01*
Y68400D01*
X-76350D01*
Y66600D01*
D02*
G37*
G36*
X-77300D02*
X-77650D01*
Y68400D01*
X-77300D01*
Y66600D01*
D02*
G37*
G36*
X-87850Y65600D02*
X-88200D01*
Y67400D01*
X-87850D01*
Y65600D01*
D02*
G37*
G36*
X-88800D02*
X-89150D01*
Y67400D01*
X-88800D01*
Y65600D01*
D02*
G37*
G36*
X-87850Y61600D02*
X-88200D01*
Y63400D01*
X-87850D01*
Y61600D01*
D02*
G37*
G36*
X-88800D02*
X-89150D01*
Y63400D01*
X-88800D01*
Y61600D01*
D02*
G37*
G36*
X-87850Y57600D02*
X-88200D01*
Y59400D01*
X-87850D01*
Y57600D01*
D02*
G37*
G36*
X-88800D02*
X-89150D01*
Y59400D01*
X-88800D01*
Y57600D01*
D02*
G37*
G36*
X-87850Y53600D02*
X-88200D01*
Y55400D01*
X-87850D01*
Y53600D01*
D02*
G37*
G36*
X-88800D02*
X-89150D01*
Y55400D01*
X-88800D01*
Y53600D01*
D02*
G37*
G36*
X-94888Y51310D02*
X-95723D01*
Y53110D01*
X-94888D01*
Y51310D01*
D02*
G37*
G36*
X-106277D02*
X-107112D01*
Y53110D01*
X-106277D01*
Y51310D01*
D02*
G37*
G36*
X-41600Y81300D02*
X-43400D01*
Y81650D01*
X-41600D01*
Y81300D01*
D02*
G37*
G36*
X-46100D02*
X-47900D01*
Y81650D01*
X-46100D01*
Y81300D01*
D02*
G37*
G36*
X-51100D02*
X-52900D01*
Y81650D01*
X-51100D01*
Y81300D01*
D02*
G37*
G36*
X-41600Y80350D02*
X-43400D01*
Y80700D01*
X-41600D01*
Y80350D01*
D02*
G37*
G36*
X-46100D02*
X-47900D01*
Y80700D01*
X-46100D01*
Y80350D01*
D02*
G37*
G36*
X-51100D02*
X-52900D01*
Y80700D01*
X-51100D01*
Y80350D01*
D02*
G37*
G36*
X-52850Y73600D02*
X-53200D01*
Y75400D01*
X-52850D01*
Y73600D01*
D02*
G37*
G36*
X-53800D02*
X-54150D01*
Y75400D01*
X-53800D01*
Y73600D01*
D02*
G37*
G36*
X-73550Y72850D02*
X-73900Y72850D01*
Y74150D01*
X-73550Y74150D01*
Y72850D01*
D02*
G37*
G36*
X-75100D02*
X-75450D01*
Y74150D01*
X-75100D01*
Y72850D01*
D02*
G37*
G36*
X-74100Y56300D02*
X-75900D01*
Y56650D01*
X-74100D01*
Y56300D01*
D02*
G37*
G36*
Y55350D02*
X-75900D01*
Y55700D01*
X-74100D01*
Y55350D01*
D02*
G37*
G36*
X-30150Y49250D02*
X-29450D01*
Y48750D01*
X-30150D01*
Y47950D01*
X-30550D01*
Y50050D01*
X-30150D01*
Y49250D01*
D02*
G37*
G36*
X-38150D02*
X-37450D01*
Y48750D01*
X-38150D01*
Y47950D01*
X-38550D01*
Y50050D01*
X-38150D01*
Y49250D01*
D02*
G37*
G36*
X-29450Y43950D02*
X-29850D01*
Y44750D01*
X-30550D01*
Y45250D01*
X-29850D01*
Y46050D01*
X-29450D01*
Y43950D01*
D02*
G37*
G36*
X-37450D02*
X-37850D01*
Y44750D01*
X-38550D01*
Y45250D01*
X-37850D01*
Y46050D01*
X-37450D01*
Y43950D01*
D02*
G37*
G36*
X-7100Y29300D02*
X-8900D01*
Y29650D01*
X-7100D01*
Y29300D01*
D02*
G37*
G36*
Y28350D02*
X-8900D01*
Y28700D01*
X-7100D01*
Y28350D01*
D02*
G37*
G36*
X-29100Y28300D02*
X-30900D01*
Y28650D01*
X-29100D01*
Y28300D01*
D02*
G37*
G36*
Y27350D02*
X-30900D01*
Y27700D01*
X-29100D01*
Y27350D01*
D02*
G37*
G36*
X-41850Y19100D02*
X-42200D01*
Y20900D01*
X-41850D01*
Y19100D01*
D02*
G37*
G36*
X-42800D02*
X-43150D01*
Y20900D01*
X-42800D01*
Y19100D01*
D02*
G37*
G36*
X-85850Y104600D02*
X-87150D01*
Y104950D01*
X-85850D01*
Y104600D01*
D02*
G37*
G36*
X-56850Y104100D02*
X-57200D01*
Y105900D01*
X-56850D01*
Y104100D01*
D02*
G37*
G36*
X-57800D02*
X-58150D01*
Y105900D01*
X-57800D01*
Y104100D01*
D02*
G37*
G36*
X-64850D02*
X-65200D01*
Y105900D01*
X-64850D01*
Y104100D01*
D02*
G37*
G36*
X-65800D02*
X-66150D01*
Y105900D01*
X-65800D01*
Y104100D01*
D02*
G37*
G36*
X-50600Y103300D02*
X-52400D01*
Y103650D01*
X-50600D01*
Y103300D01*
D02*
G37*
G36*
X-85850Y103050D02*
X-87150D01*
X-87150Y103400D01*
X-85850D01*
X-85850Y103050D01*
D02*
G37*
G36*
X-98350Y102600D02*
X-99650D01*
Y102950D01*
X-98350D01*
Y102600D01*
D02*
G37*
G36*
X-50600Y102350D02*
X-52400D01*
Y102700D01*
X-50600D01*
Y102350D01*
D02*
G37*
G36*
X-71600Y102300D02*
X-73400D01*
Y102650D01*
X-71600D01*
Y102300D01*
D02*
G37*
G36*
X-79600D02*
X-81400D01*
Y102650D01*
X-79600D01*
Y102300D01*
D02*
G37*
G36*
X-91600D02*
X-93400D01*
Y102650D01*
X-91600D01*
Y102300D01*
D02*
G37*
G36*
X-71600Y101350D02*
X-73400D01*
Y101700D01*
X-71600D01*
Y101350D01*
D02*
G37*
G36*
X-75550D02*
X-75900Y101350D01*
Y102650D01*
X-75550Y102650D01*
Y101350D01*
D02*
G37*
G36*
X-77100D02*
X-77450D01*
Y102650D01*
X-77100D01*
Y101350D01*
D02*
G37*
G36*
X-79600D02*
X-81400D01*
Y101700D01*
X-79600D01*
Y101350D01*
D02*
G37*
G36*
X-91600D02*
X-93400D01*
Y101700D01*
X-91600D01*
Y101350D01*
D02*
G37*
G36*
X-98350Y101050D02*
X-99650D01*
X-99650Y101400D01*
X-98350D01*
X-98350Y101050D01*
D02*
G37*
G36*
X-85850Y100600D02*
X-87150D01*
X-87150Y100950D01*
X-85850D01*
X-85850Y100600D01*
D02*
G37*
G36*
X-56850Y100100D02*
X-57200D01*
Y101900D01*
X-56850D01*
Y100100D01*
D02*
G37*
G36*
X-57800D02*
X-58150D01*
Y101900D01*
X-57800D01*
Y100100D01*
D02*
G37*
G36*
X-64850D02*
X-65200D01*
Y101900D01*
X-64850D01*
Y100100D01*
D02*
G37*
G36*
X-65800D02*
X-66150D01*
Y101900D01*
X-65800D01*
Y100100D01*
D02*
G37*
G36*
X-85850Y99050D02*
X-87150D01*
Y99400D01*
X-85850D01*
Y99050D01*
D02*
G37*
G36*
X-55800Y95300D02*
X-57600D01*
Y95650D01*
X-55800D01*
Y95300D01*
D02*
G37*
G36*
X-60600D02*
X-62400D01*
Y95650D01*
X-60600D01*
Y95300D01*
D02*
G37*
G36*
X-65400D02*
X-67200D01*
Y95650D01*
X-65400D01*
Y95300D01*
D02*
G37*
G36*
X-55800Y94350D02*
X-57600D01*
Y94700D01*
X-55800D01*
Y94350D01*
D02*
G37*
G36*
X-60600D02*
X-62400D01*
Y94700D01*
X-60600D01*
Y94350D01*
D02*
G37*
G36*
X-65400D02*
X-67200D01*
Y94700D01*
X-65400D01*
Y94350D01*
D02*
G37*
G36*
X-95550D02*
X-95900D01*
Y95650D01*
X-95550D01*
Y94350D01*
D02*
G37*
G36*
X-97100Y95650D02*
Y94350D01*
X-97450Y94350D01*
Y95650D01*
X-97100Y95650D01*
D02*
G37*
G36*
X-100050Y94350D02*
X-100400D01*
Y95650D01*
X-100050D01*
Y94350D01*
D02*
G37*
G36*
X-101600Y95650D02*
Y94350D01*
X-101950Y94350D01*
Y95650D01*
X-101600Y95650D01*
D02*
G37*
G36*
X-44600Y89300D02*
X-46400D01*
Y89650D01*
X-44600D01*
Y89300D01*
D02*
G37*
G36*
X-49100D02*
X-50900D01*
Y89650D01*
X-49100D01*
Y89300D01*
D02*
G37*
G36*
X-44600Y88350D02*
X-46400D01*
Y88700D01*
X-44600D01*
Y88350D01*
D02*
G37*
G36*
X-49100D02*
X-50900D01*
Y88700D01*
X-49100D01*
Y88350D01*
D02*
G37*
G36*
X-56100Y83300D02*
X-57900D01*
Y83650D01*
X-56100D01*
Y83300D01*
D02*
G37*
G36*
X-60600D02*
X-62400D01*
Y83650D01*
X-60600D01*
Y83300D01*
D02*
G37*
G36*
X-65100D02*
X-66900D01*
Y83650D01*
X-65100D01*
Y83300D01*
D02*
G37*
G36*
X-56100Y82350D02*
X-57900D01*
Y82700D01*
X-56100D01*
Y82350D01*
D02*
G37*
G36*
X-60600D02*
X-62400D01*
Y82700D01*
X-60600D01*
Y82350D01*
D02*
G37*
G36*
X-65100D02*
X-66900D01*
Y82700D01*
X-65100D01*
Y82350D01*
D02*
G37*
D10*
X-13118Y33500D02*
G03*
X-13118Y33500I-500J0D01*
G01*
X-45987Y72929D02*
G03*
X-45987Y72929I-670J0D01*
G01*
X-59650Y70842D02*
G03*
X-53350Y70842I3150J1477D01*
G01*
X-23161Y33103D02*
X-16075D01*
X-23161Y25425D02*
Y28575D01*
Y20898D02*
X-16075D01*
X-53350Y71039D02*
X-48429D01*
X-64571D02*
X-59650D01*
X-48429Y50961D02*
Y71040D01*
X-64571Y50961D02*
X-48429D01*
X-64571Y50960D02*
Y71039D01*
X-2453Y84273D02*
X2272Y82344D01*
X-2453Y84273D02*
X2311Y86242D01*
X2317Y49073D02*
Y95852D01*
X-20992Y87790D02*
Y95852D01*
Y49153D02*
Y57220D01*
Y95852D02*
X-16782D01*
X-8663D02*
X2317D01*
X-20992Y49153D02*
X-16782D01*
X-8663D02*
X2317D01*
X-45000Y98000D02*
X-25000D01*
Y108000D01*
X-45000D02*
X-25000D01*
X-45000Y98000D02*
Y108000D01*
X-106153Y17710D02*
X-62847D01*
X-106154D02*
X-106153Y38380D01*
X-62846Y17710D02*
X-62846Y38380D01*
Y39560D01*
X-76503D02*
X-62846D01*
X-106193D02*
X-92497D01*
X-106193Y38380D02*
Y39560D01*
D43*
X-106812Y52810D02*
Y67190D01*
X-95188Y52810D02*
Y67190D01*
X-106812Y56440D02*
X-95188D01*
X-106812Y67190D02*
X-106477D01*
X-95523D02*
X-95188D01*
X-83101Y59678D02*
Y63453D01*
X-77899D01*
Y59678D02*
Y63453D01*
X-83101Y52547D02*
Y56322D01*
Y52547D02*
X-77899D01*
Y56322D01*
X-46621Y23342D02*
X-42432D01*
Y41658D01*
X-46621D02*
X-42432D01*
X-59568Y23342D02*
X-55379D01*
X-59568D02*
Y41658D01*
X-55379D01*
D59*
X-69362Y84547D02*
G03*
X-69362Y84547I-394J0D01*
G01*
D60*
X-76193Y42901D02*
G03*
X-76193Y42911I591J5D01*
G01*
D61*
X-29100Y27350D02*
Y27700D01*
X-30900Y27350D02*
Y27700D01*
X-29100D01*
X-30900Y27350D02*
X-29100D01*
X-30900Y28650D02*
X-29100D01*
X-30900Y28300D02*
X-29100D01*
Y28650D01*
X-30900Y28300D02*
Y28650D01*
X-7100Y28350D02*
Y28700D01*
X-8900Y28350D02*
Y28700D01*
X-7100D01*
X-8900Y28350D02*
X-7100D01*
X-8900Y29650D02*
X-7100D01*
X-8900Y29300D02*
X-7100D01*
Y29650D01*
X-8900Y29300D02*
Y29650D01*
X-89150Y53600D02*
X-88800D01*
X-89150Y55400D02*
X-88800D01*
Y53600D02*
Y55400D01*
X-89150Y53600D02*
Y55400D01*
X-87850Y53600D02*
Y55400D01*
X-88200Y53600D02*
Y55400D01*
Y53600D02*
X-87850D01*
X-88200Y55400D02*
X-87850D01*
X-89150Y61600D02*
X-88800D01*
X-89150Y63400D02*
X-88800D01*
Y61600D02*
Y63400D01*
X-89150Y61600D02*
Y63400D01*
X-87850Y61600D02*
Y63400D01*
X-88200Y61600D02*
Y63400D01*
Y61600D02*
X-87850D01*
X-88200Y63400D02*
X-87850D01*
X-89150Y57600D02*
X-88800D01*
X-89150Y59400D02*
X-88800D01*
Y57600D02*
Y59400D01*
X-89150Y57600D02*
Y59400D01*
X-87850Y57600D02*
Y59400D01*
X-88200Y57600D02*
Y59400D01*
Y57600D02*
X-87850D01*
X-88200Y59400D02*
X-87850D01*
X-89150Y65600D02*
X-88800D01*
X-89150Y67400D02*
X-88800D01*
Y65600D02*
Y67400D01*
X-89150Y65600D02*
Y67400D01*
X-87850Y65600D02*
Y67400D01*
X-88200Y65600D02*
Y67400D01*
Y65600D02*
X-87850D01*
X-88200Y67400D02*
X-87850D01*
X-77650Y66600D02*
X-77300D01*
X-77650Y68400D02*
X-77300D01*
Y66600D02*
Y68400D01*
X-77650Y66600D02*
Y68400D01*
X-76350Y66600D02*
Y68400D01*
X-76700Y66600D02*
Y68400D01*
Y66600D02*
X-76350D01*
X-76700Y68400D02*
X-76350D01*
X-75900Y56300D02*
Y56650D01*
X-74100Y56300D02*
Y56650D01*
X-75900Y56300D02*
X-74100D01*
X-75900Y56650D02*
X-74100D01*
X-75900Y55350D02*
X-74100D01*
X-75900Y55700D02*
X-74100D01*
X-75900Y55350D02*
Y55700D01*
X-74100Y55350D02*
Y55700D01*
X-38550Y47950D02*
Y50050D01*
X-38150Y47950D02*
Y48750D01*
X-37450D02*
Y49250D01*
X-38150D02*
Y50050D01*
X-38550D02*
X-38150D01*
Y48750D02*
X-37450D01*
X-38150Y49250D02*
X-37450D01*
X-38550Y47950D02*
X-38150D01*
X-37450Y43950D02*
Y46050D01*
X-37850Y45250D02*
Y46050D01*
X-38550Y44750D02*
Y45250D01*
X-37850Y43950D02*
Y44750D01*
Y43950D02*
X-37450D01*
X-38550Y45250D02*
X-37850D01*
X-38550Y44750D02*
X-37850D01*
Y46050D02*
X-37450D01*
X-54150Y73600D02*
X-53800D01*
X-54150Y75400D02*
X-53800D01*
Y73600D02*
Y75400D01*
X-54150Y73600D02*
Y75400D01*
X-52850Y73600D02*
Y75400D01*
X-53200Y73600D02*
Y75400D01*
Y73600D02*
X-52850D01*
X-53200Y75400D02*
X-52850D01*
X-30550Y47950D02*
Y50050D01*
X-30150Y47950D02*
Y48750D01*
X-29450D02*
Y49250D01*
X-30150D02*
Y50050D01*
X-30550D02*
X-30150D01*
Y48750D02*
X-29450D01*
X-30150Y49250D02*
X-29450D01*
X-30550Y47950D02*
X-30150D01*
X-29450Y43950D02*
Y46050D01*
X-29850Y45250D02*
Y46050D01*
X-30550Y44750D02*
Y45250D01*
X-29850Y43950D02*
Y44750D01*
Y43950D02*
X-29450D01*
X-30550Y45250D02*
X-29850D01*
X-30550Y44750D02*
X-29850D01*
Y46050D02*
X-29450D01*
X-43150Y19100D02*
X-42800D01*
X-43150Y20900D02*
X-42800D01*
Y19100D02*
Y20900D01*
X-43150Y19100D02*
Y20900D01*
X-41850Y19100D02*
Y20900D01*
X-42200Y19100D02*
Y20900D01*
Y19100D02*
X-41850D01*
X-42200Y20900D02*
X-41850D01*
X-75450Y72850D02*
Y74150D01*
Y72850D02*
X-75100D01*
Y74150D01*
X-75450D02*
X-75100D01*
X-73900Y72850D02*
X-73550Y72850D01*
X-73900Y72850D02*
Y74150D01*
X-73550Y74150D01*
Y72850D02*
Y74150D01*
X-66150Y100100D02*
X-65800D01*
X-66150Y101900D02*
X-65800D01*
Y100100D02*
Y101900D01*
X-66150Y100100D02*
Y101900D01*
X-64850Y100100D02*
Y101900D01*
X-65200Y100100D02*
Y101900D01*
Y100100D02*
X-64850D01*
X-65200Y101900D02*
X-64850D01*
X-71600Y101350D02*
Y101700D01*
X-73400Y101350D02*
Y101700D01*
X-71600D01*
X-73400Y101350D02*
X-71600D01*
X-73400Y102650D02*
X-71600D01*
X-73400Y102300D02*
X-71600D01*
Y102650D01*
X-73400Y102300D02*
Y102650D01*
X-66150Y104100D02*
X-65800D01*
X-66150Y105900D02*
X-65800D01*
Y104100D02*
Y105900D01*
X-66150Y104100D02*
Y105900D01*
X-64850Y104100D02*
Y105900D01*
X-65200Y104100D02*
Y105900D01*
Y104100D02*
X-64850D01*
X-65200Y105900D02*
X-64850D01*
X-77450Y101350D02*
Y102650D01*
Y101350D02*
X-77100D01*
Y102650D01*
X-77450D02*
X-77100D01*
X-75900Y101350D02*
X-75550Y101350D01*
X-75900Y101350D02*
Y102650D01*
X-75550Y102650D01*
Y101350D02*
Y102650D01*
X-58150Y104100D02*
X-57800D01*
X-58150Y105900D02*
X-57800D01*
Y104100D02*
Y105900D01*
X-58150Y104100D02*
Y105900D01*
X-56850Y104100D02*
Y105900D01*
X-57200Y104100D02*
Y105900D01*
Y104100D02*
X-56850D01*
X-57200Y105900D02*
X-56850D01*
X-52400Y103300D02*
Y103650D01*
X-50600Y103300D02*
Y103650D01*
X-52400Y103300D02*
X-50600D01*
X-52400Y103650D02*
X-50600D01*
X-52400Y102350D02*
X-50600D01*
X-52400Y102700D02*
X-50600D01*
X-52400Y102350D02*
Y102700D01*
X-50600Y102350D02*
Y102700D01*
X-58150Y100100D02*
X-57800D01*
X-58150Y101900D02*
X-57800D01*
Y100100D02*
Y101900D01*
X-58150Y100100D02*
Y101900D01*
X-56850Y100100D02*
Y101900D01*
X-57200Y100100D02*
Y101900D01*
Y100100D02*
X-56850D01*
X-57200Y101900D02*
X-56850D01*
X-89900Y73800D02*
Y74150D01*
X-88100Y73800D02*
Y74150D01*
X-89900Y73800D02*
X-88100D01*
X-89900Y74150D02*
X-88100D01*
X-89900Y72850D02*
X-88100D01*
X-89900Y73200D02*
X-88100D01*
X-89900Y72850D02*
Y73200D01*
X-88100Y72850D02*
Y73200D01*
X-99650Y101050D02*
X-98350D01*
X-98350Y101400D02*
X-98350Y101050D01*
X-99650Y101400D02*
X-98350D01*
X-99650Y101050D02*
X-99650Y101400D01*
X-98350Y102600D02*
Y102950D01*
X-99650Y102600D02*
X-98350D01*
X-99650D02*
Y102950D01*
X-98350D01*
X-79600Y101350D02*
Y101700D01*
X-81400Y101350D02*
Y101700D01*
X-79600D01*
X-81400Y101350D02*
X-79600D01*
X-81400Y102650D02*
X-79600D01*
X-81400Y102300D02*
X-79600D01*
Y102650D01*
X-81400Y102300D02*
Y102650D01*
X-87150Y104950D02*
X-85850D01*
X-87150Y104600D02*
Y104950D01*
Y104600D02*
X-85850D01*
Y104950D01*
X-87150Y103050D02*
X-87150Y103400D01*
X-85850D01*
X-85850Y103050D01*
X-87150D02*
X-85850D01*
X-91600Y101350D02*
Y101700D01*
X-93400Y101350D02*
Y101700D01*
X-91600D01*
X-93400Y101350D02*
X-91600D01*
X-93400Y102650D02*
X-91600D01*
X-93400Y102300D02*
X-91600D01*
Y102650D01*
X-93400Y102300D02*
Y102650D01*
X-87150Y99050D02*
X-85850D01*
Y99400D01*
X-87150D02*
X-85850D01*
X-87150Y99050D02*
Y99400D01*
X-85850Y100600D02*
X-85850Y100950D01*
X-87150Y100600D02*
X-85850D01*
X-87150Y100950D02*
X-87150Y100600D01*
X-87150Y100950D02*
X-85850D01*
X-80400Y73800D02*
Y74150D01*
X-78600Y73800D02*
Y74150D01*
X-80400Y73800D02*
X-78600D01*
X-80400Y74150D02*
X-78600D01*
X-80400Y72850D02*
X-78600D01*
X-80400Y73200D02*
X-78600D01*
X-80400Y72850D02*
Y73200D01*
X-78600Y72850D02*
Y73200D01*
X-84900Y73800D02*
Y74150D01*
X-83100Y73800D02*
Y74150D01*
X-84900Y73800D02*
X-83100D01*
X-84900Y74150D02*
X-83100D01*
X-84900Y72850D02*
X-83100D01*
X-84900Y73200D02*
X-83100D01*
X-84900Y72850D02*
Y73200D01*
X-83100Y72850D02*
Y73200D01*
X-50900Y89300D02*
Y89650D01*
X-49100Y89300D02*
Y89650D01*
X-50900Y89300D02*
X-49100D01*
X-50900Y89650D02*
X-49100D01*
X-50900Y88350D02*
X-49100D01*
X-50900Y88700D02*
X-49100D01*
X-50900Y88350D02*
Y88700D01*
X-49100Y88350D02*
Y88700D01*
X-46400Y89300D02*
Y89650D01*
X-44600Y89300D02*
Y89650D01*
X-46400Y89300D02*
X-44600D01*
X-46400Y89650D02*
X-44600D01*
X-46400Y88350D02*
X-44600D01*
X-46400Y88700D02*
X-44600D01*
X-46400Y88350D02*
Y88700D01*
X-44600Y88350D02*
Y88700D01*
X-65400Y94350D02*
Y94700D01*
X-67200Y94350D02*
Y94700D01*
X-65400D01*
X-67200Y94350D02*
X-65400D01*
X-67200Y95650D02*
X-65400D01*
X-67200Y95300D02*
X-65400D01*
Y95650D01*
X-67200Y95300D02*
Y95650D01*
X-60600Y94350D02*
Y94700D01*
X-62400Y94350D02*
Y94700D01*
X-60600D01*
X-62400Y94350D02*
X-60600D01*
X-62400Y95650D02*
X-60600D01*
X-62400Y95300D02*
X-60600D01*
Y95650D01*
X-62400Y95300D02*
Y95650D01*
X-55800Y94350D02*
Y94700D01*
X-57600Y94350D02*
Y94700D01*
X-55800D01*
X-57600Y94350D02*
X-55800D01*
X-57600Y95650D02*
X-55800D01*
X-57600Y95300D02*
X-55800D01*
Y95650D01*
X-57600Y95300D02*
Y95650D01*
X-57900Y83300D02*
Y83650D01*
X-56100Y83300D02*
Y83650D01*
X-57900Y83300D02*
X-56100D01*
X-57900Y83650D02*
X-56100D01*
X-57900Y82350D02*
X-56100D01*
X-57900Y82700D02*
X-56100D01*
X-57900Y82350D02*
Y82700D01*
X-56100Y82350D02*
Y82700D01*
X-51100Y80350D02*
Y80700D01*
X-52900Y80350D02*
Y80700D01*
X-51100D01*
X-52900Y80350D02*
X-51100D01*
X-52900Y81650D02*
X-51100D01*
X-52900Y81300D02*
X-51100D01*
Y81650D01*
X-52900Y81300D02*
Y81650D01*
X-62400Y83300D02*
Y83650D01*
X-60600Y83300D02*
Y83650D01*
X-62400Y83300D02*
X-60600D01*
X-62400Y83650D02*
X-60600D01*
X-62400Y82350D02*
X-60600D01*
X-62400Y82700D02*
X-60600D01*
X-62400Y82350D02*
Y82700D01*
X-60600Y82350D02*
Y82700D01*
X-66900Y83300D02*
Y83650D01*
X-65100Y83300D02*
Y83650D01*
X-66900Y83300D02*
X-65100D01*
X-66900Y83650D02*
X-65100D01*
X-66900Y82350D02*
X-65100D01*
X-66900Y82700D02*
X-65100D01*
X-66900Y82350D02*
Y82700D01*
X-65100Y82350D02*
Y82700D01*
X-46100Y80350D02*
Y80700D01*
X-47900Y80350D02*
Y80700D01*
X-46100D01*
X-47900Y80350D02*
X-46100D01*
X-47900Y81650D02*
X-46100D01*
X-47900Y81300D02*
X-46100D01*
Y81650D01*
X-47900Y81300D02*
Y81650D01*
X-41600Y80350D02*
Y80700D01*
X-43400Y80350D02*
Y80700D01*
X-41600D01*
X-43400Y80350D02*
X-41600D01*
X-43400Y81650D02*
X-41600D01*
X-43400Y81300D02*
X-41600D01*
Y81650D01*
X-43400Y81300D02*
Y81650D01*
X-100050Y94350D02*
Y95650D01*
X-100400D02*
X-100050D01*
X-100400Y94350D02*
Y95650D01*
Y94350D02*
X-100050D01*
X-101950Y95650D02*
X-101600Y95650D01*
Y94350D02*
Y95650D01*
X-101950Y94350D02*
X-101600Y94350D01*
X-101950Y94350D02*
Y95650D01*
X-101517Y79850D02*
Y81150D01*
Y79850D02*
X-101167D01*
Y81150D01*
X-101517D02*
X-101167D01*
X-99967Y79850D02*
X-99617Y79850D01*
X-99967Y79850D02*
Y81150D01*
X-99617Y81150D01*
Y79850D02*
Y81150D01*
X-96517Y79850D02*
Y81150D01*
Y79850D02*
X-96167D01*
Y81150D01*
X-96517D02*
X-96167D01*
X-94967Y79850D02*
X-94617Y79850D01*
X-94967Y79850D02*
Y81150D01*
X-94617Y81150D01*
Y79850D02*
Y81150D01*
X-95550Y94350D02*
Y95650D01*
X-95900D02*
X-95550D01*
X-95900Y94350D02*
Y95650D01*
Y94350D02*
X-95550D01*
X-97450Y95650D02*
X-97100Y95650D01*
Y94350D02*
Y95650D01*
X-97450Y94350D02*
X-97100Y94350D01*
X-97450Y94350D02*
Y95650D01*
D62*
X-73299Y80610D02*
X-72709D01*
Y83169D01*
Y91831D02*
Y94390D01*
X-73299D02*
X-72709D01*
X-90425Y80610D02*
X-89835D01*
X-90425D02*
Y83169D01*
Y91831D02*
Y94390D01*
X-89835D01*
M02*
