G04*
G04 #@! TF.GenerationSoftware,Altium Limited,Altium Designer,20.0.2 (26)*
G04*
G04 Layer_Physical_Order=4*
G04 Layer_Color=16711680*
%FSLAX25Y25*%
%MOIN*%
G70*
G01*
G75*
%ADD10C,0.01000*%
%ADD16C,0.01500*%
%ADD17C,0.00400*%
%ADD18C,0.07087*%
%ADD19R,0.07087X0.07087*%
%ADD20C,0.09843*%
%ADD21C,0.01800*%
%ADD22C,0.01181*%
G04:AMPARAMS|DCode=28|XSize=20mil|YSize=20mil|CornerRadius=5mil|HoleSize=0mil|Usage=FLASHONLY|Rotation=180.000|XOffset=0mil|YOffset=0mil|HoleType=Round|Shape=RoundedRectangle|*
%AMROUNDEDRECTD28*
21,1,0.02000,0.01000,0,0,180.0*
21,1,0.01000,0.02000,0,0,180.0*
1,1,0.01000,-0.00500,0.00500*
1,1,0.01000,0.00500,0.00500*
1,1,0.01000,0.00500,-0.00500*
1,1,0.01000,-0.00500,-0.00500*
%
%ADD28ROUNDEDRECTD28*%
%ADD29R,0.03937X0.02362*%
%ADD30R,0.09843X0.13779*%
%ADD31R,0.04724X0.02362*%
%ADD32R,0.06299X0.07874*%
%ADD33R,0.05906X0.01181*%
G04:AMPARAMS|DCode=34|XSize=9.45mil|YSize=23.62mil|CornerRadius=1.98mil|HoleSize=0mil|Usage=FLASHONLY|Rotation=90.000|XOffset=0mil|YOffset=0mil|HoleType=Round|Shape=RoundedRectangle|*
%AMROUNDEDRECTD34*
21,1,0.00945,0.01965,0,0,90.0*
21,1,0.00548,0.02362,0,0,90.0*
1,1,0.00397,0.00983,0.00274*
1,1,0.00397,0.00983,-0.00274*
1,1,0.00397,-0.00983,-0.00274*
1,1,0.00397,-0.00983,0.00274*
%
%ADD34ROUNDEDRECTD34*%
G04:AMPARAMS|DCode=35|XSize=23.62mil|YSize=9.45mil|CornerRadius=1.98mil|HoleSize=0mil|Usage=FLASHONLY|Rotation=90.000|XOffset=0mil|YOffset=0mil|HoleType=Round|Shape=RoundedRectangle|*
%AMROUNDEDRECTD35*
21,1,0.02362,0.00548,0,0,90.0*
21,1,0.01965,0.00945,0,0,90.0*
1,1,0.00397,0.00274,0.00983*
1,1,0.00397,0.00274,-0.00983*
1,1,0.00397,-0.00274,-0.00983*
1,1,0.00397,-0.00274,0.00983*
%
%ADD35ROUNDEDRECTD35*%
G04:AMPARAMS|DCode=36|XSize=80.71mil|YSize=120.08mil|CornerRadius=2.02mil|HoleSize=0mil|Usage=FLASHONLY|Rotation=90.000|XOffset=0mil|YOffset=0mil|HoleType=Round|Shape=RoundedRectangle|*
%AMROUNDEDRECTD36*
21,1,0.08071,0.11604,0,0,90.0*
21,1,0.07667,0.12008,0,0,90.0*
1,1,0.00404,0.05802,0.03834*
1,1,0.00404,0.05802,-0.03834*
1,1,0.00404,-0.05802,-0.03834*
1,1,0.00404,-0.05802,0.03834*
%
%ADD36ROUNDEDRECTD36*%
%ADD37R,0.09354X0.06329*%
G04:AMPARAMS|DCode=38|XSize=20mil|YSize=20mil|CornerRadius=5mil|HoleSize=0mil|Usage=FLASHONLY|Rotation=270.000|XOffset=0mil|YOffset=0mil|HoleType=Round|Shape=RoundedRectangle|*
%AMROUNDEDRECTD38*
21,1,0.02000,0.01000,0,0,270.0*
21,1,0.01000,0.02000,0,0,270.0*
1,1,0.01000,-0.00500,-0.00500*
1,1,0.01000,-0.00500,0.00500*
1,1,0.01000,0.00500,0.00500*
1,1,0.01000,0.00500,-0.00500*
%
%ADD38ROUNDEDRECTD38*%
%ADD39R,0.03402X0.03175*%
%ADD40R,0.07559X0.06787*%
%ADD41R,0.02362X0.08661*%
%ADD42R,0.10236X0.10236*%
%ADD43C,0.00600*%
G36*
X-4500Y127000D02*
X-3563D01*
X-3402Y126526D01*
X-3938Y126116D01*
X-4823Y124962D01*
X-5379Y123619D01*
X-5569Y122178D01*
X-5379Y120737D01*
X-4823Y119394D01*
X-3938Y118240D01*
X-2784Y117355D01*
X-1441Y116799D01*
X0Y116609D01*
X1441Y116799D01*
X2784Y117355D01*
X3938Y118240D01*
X4823Y119394D01*
X5379Y120737D01*
X5569Y122178D01*
X5379Y123619D01*
X4823Y124962D01*
X3938Y126116D01*
X3402Y126526D01*
X3563Y127000D01*
X7000D01*
X9000Y125000D01*
Y-2500D01*
X6500Y-5000D01*
X3375D01*
X3205Y-4500D01*
X3938Y-3938D01*
X4823Y-2784D01*
X5379Y-1441D01*
X5569Y0D01*
X5379Y1441D01*
X4823Y2784D01*
X3938Y3938D01*
X2784Y4823D01*
X1441Y5379D01*
X0Y5569D01*
X-1441Y5379D01*
X-2784Y4823D01*
X-3938Y3938D01*
X-4823Y2784D01*
X-5379Y1441D01*
X-5569Y0D01*
X-5379Y-1441D01*
X-4823Y-2784D01*
X-3938Y-3938D01*
X-3205Y-4500D01*
X-3375Y-5000D01*
X-8000D01*
X-10000Y-3000D01*
Y6500D01*
X-13000Y9500D01*
X-110000D01*
X-113500Y13000D01*
Y109000D01*
X-111500Y111000D01*
X-66673D01*
X-66601Y110908D01*
X-66622Y110293D01*
X-66622Y110293D01*
X-67327Y109587D01*
X-67500Y109622D01*
X-74000D01*
X-74429Y109536D01*
X-74793Y109293D01*
X-74793Y109293D01*
X-77293Y106793D01*
X-77536Y106429D01*
X-77622Y106000D01*
X-77622Y106000D01*
Y105408D01*
X-77793Y105293D01*
X-78036Y104929D01*
X-78122Y104500D01*
Y103500D01*
X-78036Y103071D01*
X-77793Y102707D01*
X-77429Y102464D01*
X-77000Y102378D01*
X-76604D01*
X-76399Y102115D01*
X-76621Y101622D01*
X-77000D01*
X-77429Y101536D01*
X-77793Y101293D01*
X-77908Y101122D01*
X-79092D01*
X-79207Y101293D01*
X-79571Y101536D01*
X-80000Y101622D01*
X-81000D01*
X-81429Y101536D01*
X-81793Y101293D01*
X-81908Y101122D01*
X-83092D01*
X-83207Y101293D01*
X-83378Y101408D01*
Y102592D01*
X-83207Y102707D01*
X-82964Y103071D01*
X-82878Y103500D01*
Y104500D01*
X-82964Y104929D01*
X-83207Y105293D01*
X-83571Y105536D01*
X-84000Y105622D01*
X-85000D01*
X-85429Y105536D01*
X-85793Y105293D01*
X-86036Y104929D01*
X-86122Y104500D01*
Y103500D01*
X-86036Y103071D01*
X-85793Y102707D01*
X-85622Y102592D01*
Y101408D01*
X-85793Y101293D01*
X-86036Y100929D01*
X-86122Y100500D01*
Y100104D01*
X-86385Y99899D01*
X-86878Y100121D01*
Y100500D01*
X-86964Y100929D01*
X-87207Y101293D01*
X-87571Y101536D01*
X-88000Y101622D01*
X-88536D01*
X-88971Y102000D01*
X-89087Y102585D01*
X-89419Y103081D01*
X-89915Y103413D01*
X-90500Y103529D01*
X-91085Y103413D01*
X-91581Y103081D01*
X-91913Y102585D01*
X-92029Y102000D01*
X-92464Y101622D01*
X-93000D01*
X-93429Y101536D01*
X-93793Y101293D01*
X-93908Y101122D01*
X-94535D01*
X-95378Y101965D01*
Y102500D01*
X-95464Y102929D01*
X-95707Y103293D01*
X-96071Y103536D01*
X-96500Y103622D01*
X-97500D01*
X-97929Y103536D01*
X-98293Y103293D01*
X-98536Y102929D01*
X-98622Y102500D01*
Y101500D01*
X-98536Y101071D01*
X-98324Y100753D01*
X-98581Y100581D01*
X-98913Y100085D01*
X-99029Y99500D01*
X-98913Y98915D01*
X-98581Y98419D01*
X-98316Y98241D01*
X-98293Y98207D01*
X-98122Y98035D01*
Y97500D01*
X-98122Y97500D01*
X-98122Y97500D01*
Y96500D01*
X-98036Y96071D01*
X-97793Y95707D01*
X-97429Y95464D01*
X-97000Y95378D01*
X-96000D01*
X-95571Y95464D01*
X-95207Y95707D01*
X-94964Y96071D01*
X-94878Y96500D01*
Y97500D01*
X-94964Y97929D01*
X-95207Y98293D01*
X-95456Y98459D01*
X-95261Y98930D01*
X-95000Y98878D01*
X-95000Y98878D01*
X-93908D01*
X-93793Y98707D01*
X-93622Y98592D01*
Y97586D01*
X-93622Y97586D01*
X-93536Y97157D01*
X-93404Y96959D01*
X-93555Y96446D01*
X-93606Y96399D01*
X-94081Y96081D01*
X-94413Y95585D01*
X-94529Y95000D01*
X-94413Y94415D01*
X-94081Y93919D01*
X-93928Y93816D01*
X-94079Y93316D01*
X-94878D01*
Y93500D01*
X-94964Y93929D01*
X-95207Y94293D01*
X-95571Y94536D01*
X-96000Y94622D01*
X-97000D01*
X-97429Y94536D01*
X-97793Y94293D01*
X-98036Y93929D01*
X-98059Y93816D01*
X-99441D01*
X-99464Y93929D01*
X-99707Y94293D01*
X-100071Y94536D01*
X-100500Y94622D01*
X-101500D01*
X-101929Y94536D01*
X-102293Y94293D01*
X-102536Y93929D01*
X-102622Y93500D01*
Y92500D01*
X-102536Y92071D01*
X-102293Y91707D01*
X-101929Y91464D01*
X-101500Y91378D01*
X-100500D01*
X-100071Y91464D01*
X-99707Y91707D01*
X-99464Y92071D01*
X-99441Y92184D01*
X-98059D01*
X-98036Y92071D01*
X-97793Y91707D01*
X-97429Y91464D01*
X-97000Y91378D01*
X-96000D01*
X-95571Y91464D01*
X-95241Y91684D01*
X-93125D01*
X-91828Y90387D01*
Y90179D01*
X-91766Y89867D01*
X-91590Y89603D01*
X-91326Y89427D01*
X-91014Y89365D01*
X-89049D01*
X-88737Y89427D01*
X-88473Y89603D01*
X-88297Y89867D01*
X-88235Y90179D01*
Y90727D01*
X-88297Y91038D01*
X-88473Y91302D01*
X-88737Y91479D01*
X-89049Y91541D01*
X-90675D01*
X-91818Y92684D01*
X-91611Y93184D01*
X-89545D01*
Y93013D01*
X-89483Y92702D01*
X-89306Y92438D01*
X-89042Y92261D01*
X-88731Y92199D01*
X-88183D01*
X-87871Y92261D01*
X-87837Y92284D01*
X-87472Y92396D01*
X-87108Y92284D01*
X-87074Y92261D01*
X-86762Y92199D01*
X-86214D01*
X-85903Y92261D01*
X-85868Y92284D01*
X-85504Y92396D01*
X-85140Y92284D01*
X-85105Y92261D01*
X-84794Y92199D01*
X-84246D01*
X-83934Y92261D01*
X-83670Y92438D01*
X-83401D01*
X-83137Y92261D01*
X-82825Y92199D01*
X-82277D01*
X-81966Y92261D01*
X-81701Y92438D01*
X-81432D01*
X-81168Y92261D01*
X-80857Y92199D01*
X-80309D01*
X-79997Y92261D01*
X-79733Y92438D01*
X-79464D01*
X-79200Y92261D01*
X-78888Y92199D01*
X-78340D01*
X-78029Y92261D01*
X-77764Y92438D01*
X-77495D01*
X-77231Y92261D01*
X-76920Y92199D01*
X-76372D01*
X-76060Y92261D01*
X-76049Y92258D01*
X-75959Y92041D01*
X-75500Y91851D01*
X-69269D01*
X-66097Y88679D01*
X-65959Y88541D01*
X-66022Y88026D01*
X-66362Y87591D01*
X-66419Y87387D01*
X-66500Y87191D01*
Y87000D01*
X-67033Y86466D01*
D01*
D01*
X-67293Y86293D01*
D01*
X-67466Y86033D01*
X-67966Y85534D01*
D01*
X-67982Y85496D01*
X-68018Y85475D01*
X-68287Y85131D01*
X-69818Y83600D01*
X-69888D01*
X-69909Y83591D01*
X-70000Y83500D01*
X-74427D01*
X-74463Y83504D01*
X-74463D01*
X-74477Y83500D01*
X-74572Y83482D01*
X-74680Y83504D01*
X-74698Y83508D01*
X-74700Y83508D01*
X-74700Y83508D01*
X-74703Y83507D01*
X-75217Y83421D01*
X-75262Y83393D01*
X-75315Y83396D01*
X-75468Y83264D01*
X-75639Y83157D01*
X-75651Y83105D01*
X-75691Y83071D01*
X-75826Y82801D01*
X-76060Y82739D01*
X-76372Y82801D01*
X-76920D01*
X-77231Y82739D01*
X-77495Y82562D01*
X-77764D01*
X-78029Y82739D01*
X-78340Y82801D01*
X-78888D01*
X-79200Y82739D01*
X-79234Y82716D01*
X-79598Y82604D01*
X-79963Y82716D01*
X-79997Y82739D01*
X-80309Y82801D01*
X-80857D01*
X-81168Y82739D01*
X-81203Y82716D01*
X-81567Y82604D01*
X-81931Y82716D01*
X-81966Y82739D01*
X-82277Y82801D01*
X-82825D01*
X-83137Y82739D01*
X-83171Y82716D01*
X-83535Y82604D01*
X-83900Y82716D01*
X-83934Y82739D01*
X-84246Y82801D01*
X-84794D01*
X-85105Y82739D01*
X-85369Y82562D01*
X-85638D01*
X-85903Y82739D01*
X-86214Y82801D01*
X-86762D01*
X-87074Y82739D01*
X-87338Y82562D01*
X-87607D01*
X-87871Y82739D01*
X-88183Y82801D01*
X-88731D01*
X-89042Y82739D01*
X-89306Y82562D01*
X-89483Y82298D01*
X-89545Y81987D01*
Y80505D01*
X-89649Y80401D01*
X-89848Y80103D01*
X-89918Y79752D01*
Y77039D01*
X-89929Y77036D01*
X-90293Y76793D01*
X-90536Y76429D01*
X-90622Y76000D01*
Y75000D01*
X-90605Y74918D01*
X-90989Y74418D01*
X-92994D01*
X-93002Y74419D01*
X-93121D01*
X-94649Y75947D01*
Y76879D01*
X-94250Y77205D01*
X-93701Y77164D01*
X-93585Y77087D01*
X-93000Y76971D01*
X-92415Y77087D01*
X-91919Y77419D01*
X-91587Y77915D01*
X-91471Y78500D01*
X-91587Y79085D01*
X-91919Y79581D01*
X-92415Y79913D01*
X-93000Y80029D01*
X-93585Y79913D01*
X-93701Y79836D01*
X-94274Y79793D01*
X-94638Y80036D01*
X-95067Y80122D01*
X-96067D01*
X-96496Y80036D01*
X-96860Y79793D01*
X-97103Y79429D01*
X-97189Y79000D01*
Y78000D01*
X-97103Y77571D01*
X-96860Y77207D01*
X-96496Y76964D01*
X-96485Y76961D01*
Y75567D01*
X-96415Y75216D01*
X-96216Y74918D01*
X-94150Y72853D01*
X-93853Y72654D01*
X-93502Y72584D01*
X-93007D01*
X-93000Y72582D01*
X-86000D01*
X-85649Y72652D01*
X-85351Y72851D01*
X-84324Y73878D01*
X-83500D01*
X-83071Y73964D01*
X-82707Y74207D01*
X-82464Y74571D01*
X-82462Y74582D01*
X-81038D01*
X-81036Y74571D01*
X-80793Y74207D01*
X-80429Y73964D01*
X-80000Y73878D01*
X-79000D01*
X-78571Y73964D01*
X-78207Y74207D01*
X-77964Y74571D01*
X-77961Y74582D01*
X-76038D01*
X-76036Y74571D01*
X-75793Y74207D01*
X-75429Y73964D01*
X-75000Y73878D01*
X-74285D01*
X-74020Y73577D01*
X-74253Y73122D01*
X-75000D01*
X-75429Y73036D01*
X-75793Y72793D01*
X-76036Y72429D01*
X-76122Y72000D01*
Y71000D01*
X-76036Y70571D01*
X-75793Y70207D01*
X-75622Y70092D01*
Y69097D01*
X-75929Y69036D01*
X-76293Y68793D01*
X-76536Y68429D01*
X-76622Y68000D01*
Y67000D01*
X-76546Y66622D01*
X-76565Y66528D01*
X-76837Y66122D01*
X-81535D01*
X-82207Y66793D01*
X-82571Y67036D01*
X-83000Y67122D01*
X-83000Y67122D01*
X-84903D01*
X-84964Y67429D01*
X-85207Y67793D01*
X-85571Y68036D01*
X-86000Y68122D01*
X-87000D01*
X-87429Y68036D01*
X-87793Y67793D01*
X-88036Y67429D01*
X-88122Y67000D01*
Y66000D01*
X-88036Y65571D01*
X-87876Y65332D01*
Y63668D01*
X-88036Y63429D01*
X-88122Y63000D01*
Y62000D01*
X-88036Y61571D01*
X-87876Y61332D01*
Y59668D01*
X-88036Y59429D01*
X-88122Y59000D01*
Y58000D01*
X-88036Y57571D01*
X-87876Y57332D01*
Y55668D01*
X-88036Y55429D01*
X-88122Y55000D01*
Y54000D01*
X-88036Y53571D01*
X-87793Y53207D01*
X-87429Y52964D01*
X-87000Y52878D01*
X-86000D01*
X-85571Y52964D01*
X-85207Y53207D01*
X-84964Y53571D01*
X-84878Y54000D01*
Y55000D01*
X-84964Y55429D01*
X-85124Y55668D01*
Y57332D01*
X-84964Y57571D01*
X-84878Y58000D01*
Y59000D01*
X-84964Y59429D01*
X-85124Y59668D01*
Y61332D01*
X-84964Y61571D01*
X-84878Y62000D01*
Y63000D01*
X-84964Y63429D01*
X-85124Y63668D01*
Y64878D01*
X-83465D01*
X-82793Y64207D01*
X-82793Y64207D01*
X-82429Y63964D01*
X-82000Y63878D01*
X-74910D01*
X-74718Y63416D01*
X-75793Y62342D01*
X-76036Y61978D01*
X-76122Y61549D01*
X-76122Y61549D01*
Y59408D01*
X-76293Y59293D01*
X-76408Y59122D01*
X-77035D01*
X-77255Y59342D01*
X-77414Y59579D01*
X-77414Y59579D01*
X-78199Y60364D01*
Y63153D01*
X-82801D01*
Y58778D01*
X-79785D01*
X-79159Y58151D01*
X-79000Y57914D01*
X-78770Y57684D01*
X-78961Y57222D01*
X-82801D01*
Y52847D01*
X-81622D01*
Y51521D01*
X-81913Y51085D01*
X-82029Y50500D01*
X-81913Y49915D01*
X-81581Y49419D01*
X-81085Y49087D01*
X-80500Y48971D01*
X-79915Y49087D01*
X-79419Y49419D01*
X-79087Y49915D01*
X-78971Y50500D01*
X-79087Y51085D01*
X-79378Y51521D01*
Y52847D01*
X-78199D01*
Y56589D01*
X-77699Y56918D01*
X-77500Y56878D01*
X-76408D01*
X-76293Y56707D01*
X-75929Y56464D01*
X-75500Y56378D01*
X-74500D01*
X-74071Y56464D01*
X-73707Y56707D01*
X-73622Y56835D01*
X-73122Y56683D01*
Y52500D01*
X-73122Y52500D01*
X-73036Y52071D01*
X-72793Y51707D01*
X-72304Y51218D01*
X-72205Y51070D01*
X-67842Y46707D01*
X-67842Y46707D01*
X-67478Y46464D01*
X-67049Y46378D01*
X-67049Y46378D01*
X-53536D01*
Y45265D01*
X-55379D01*
Y37278D01*
X-46620D01*
Y45265D01*
X-51293D01*
Y46914D01*
X-51378Y47343D01*
X-51621Y47707D01*
X-51621Y47707D01*
X-52207Y48293D01*
X-52571Y48536D01*
X-53000Y48622D01*
X-53000Y48622D01*
X-66584D01*
X-69220Y51257D01*
X-69028Y51719D01*
X-64988D01*
Y55281D01*
X-70878D01*
Y56719D01*
X-64988D01*
Y57791D01*
X-64088D01*
X-64088Y57791D01*
X-63659Y57876D01*
X-63295Y58119D01*
X-62207Y59207D01*
X-62207Y59207D01*
X-61964Y59571D01*
X-61878Y60000D01*
X-61878Y60000D01*
Y65414D01*
X-61964Y65843D01*
X-62207Y66207D01*
X-62207Y66207D01*
X-62793Y66793D01*
X-63157Y67036D01*
X-63586Y67122D01*
X-63586Y67122D01*
X-64988D01*
Y70281D01*
X-70912D01*
Y68940D01*
X-71418D01*
X-71418Y68941D01*
X-71848Y68855D01*
X-72211Y68612D01*
X-72211Y68612D01*
X-72894Y67930D01*
X-72988Y67944D01*
X-73378Y68152D01*
Y70092D01*
X-73207Y70207D01*
X-72964Y70571D01*
X-72878Y71000D01*
Y71874D01*
X-72570Y72058D01*
X-72389Y72092D01*
X-72149Y71851D01*
X-71851Y71652D01*
X-71500Y71582D01*
X-51851D01*
X-51500Y71652D01*
X-51203Y71851D01*
X-50851Y72203D01*
X-50652Y72500D01*
X-50582Y72852D01*
Y72961D01*
X-50571Y72964D01*
X-50207Y73207D01*
X-49964Y73571D01*
X-49962Y73582D01*
X-47880D01*
X-45968Y71670D01*
Y70281D01*
X-48012D01*
Y66719D01*
X-44477D01*
X-44369Y66697D01*
X-44369Y66697D01*
X-43284D01*
X-42367Y65781D01*
X-42574Y65281D01*
X-48012D01*
Y61719D01*
X-43674D01*
X-42698Y60743D01*
X-42889Y60281D01*
X-48012D01*
Y56719D01*
X-43674D01*
X-43008Y56053D01*
X-43005Y56040D01*
X-42832Y55781D01*
X-43003Y55281D01*
X-48012D01*
Y51719D01*
X-43674D01*
X-41622Y49667D01*
Y49500D01*
X-41622Y49500D01*
X-41622Y49500D01*
Y48500D01*
X-41536Y48071D01*
X-41293Y47707D01*
X-41122Y47592D01*
Y46408D01*
X-41293Y46293D01*
X-41536Y45929D01*
X-41622Y45500D01*
Y44500D01*
X-41536Y44071D01*
X-41293Y43707D01*
X-40929Y43464D01*
X-40601Y43399D01*
X-40536Y43071D01*
X-40293Y42707D01*
X-39693Y42107D01*
X-39693Y42107D01*
X-39329Y41864D01*
X-38900Y41778D01*
X-38900Y41778D01*
X-34837D01*
X-34837Y41778D01*
X-34408Y41864D01*
X-34236Y41978D01*
X-33900D01*
X-33900Y41978D01*
X-33619Y42034D01*
X-33373Y41574D01*
X-39570Y35376D01*
X-54000D01*
X-54527Y35272D01*
X-54973Y34973D01*
X-54973Y34973D01*
X-61223Y28723D01*
X-61522Y28277D01*
X-61626Y27750D01*
Y26320D01*
X-62320Y25626D01*
X-80180D01*
X-82124Y27570D01*
Y30930D01*
X-81558Y31495D01*
X-81558Y31495D01*
X-81260Y31942D01*
X-81155Y32469D01*
X-81155Y32469D01*
Y35653D01*
X-80801Y36007D01*
X-80376Y36007D01*
X-80250Y36007D01*
X-79622D01*
Y33021D01*
X-79913Y32585D01*
X-80029Y32000D01*
X-79913Y31415D01*
X-79581Y30919D01*
X-79085Y30587D01*
X-78500Y30471D01*
X-77915Y30587D01*
X-77419Y30919D01*
X-77087Y31415D01*
X-76971Y32000D01*
X-77087Y32585D01*
X-77378Y33021D01*
Y36007D01*
X-76813D01*
Y40378D01*
X-75021D01*
X-74585Y40087D01*
X-74000Y39971D01*
X-73415Y40087D01*
X-72919Y40419D01*
X-72587Y40915D01*
X-72471Y41500D01*
X-72587Y42085D01*
X-72919Y42581D01*
X-73415Y42913D01*
X-74000Y43029D01*
X-74585Y42913D01*
X-75021Y42622D01*
X-76813D01*
Y45868D01*
X-80250D01*
X-80376Y45868D01*
X-80750D01*
X-80876Y45868D01*
X-84313D01*
Y45868D01*
X-84687D01*
Y45868D01*
X-85347D01*
Y46968D01*
X-85432Y47398D01*
X-85675Y47762D01*
X-85676Y47762D01*
X-91182Y53268D01*
X-91546Y53512D01*
X-91975Y53597D01*
X-91975Y53597D01*
X-95723D01*
Y56240D01*
X-106277D01*
Y48711D01*
X-95723D01*
Y51354D01*
X-92440D01*
X-87590Y46504D01*
Y45868D01*
X-88250D01*
Y36007D01*
X-87590D01*
Y25469D01*
X-87590Y25469D01*
X-87505Y25039D01*
X-87262Y24675D01*
X-84793Y22207D01*
X-84793Y22207D01*
X-84429Y21964D01*
X-84000Y21878D01*
X-84000Y21879D01*
X-82581D01*
X-82395Y21693D01*
X-82186Y21231D01*
X-82517Y20735D01*
X-82634Y20150D01*
X-82517Y19565D01*
X-82186Y19069D01*
X-81690Y18737D01*
X-81104Y18621D01*
X-80519Y18737D01*
X-80083Y19028D01*
X-60971D01*
X-60971Y19028D01*
X-60542Y19114D01*
X-60178Y19357D01*
X-56928Y22607D01*
X-55379D01*
Y19735D01*
X-48321D01*
X-47793Y19207D01*
X-47793Y19207D01*
X-47429Y18964D01*
X-47000Y18879D01*
X-45908D01*
X-45793Y18707D01*
X-45429Y18464D01*
X-45000Y18379D01*
X-44000D01*
X-43571Y18464D01*
X-43207Y18707D01*
X-42964Y19071D01*
X-42878Y19500D01*
Y20500D01*
X-42964Y20929D01*
X-43207Y21293D01*
X-43571Y21536D01*
X-44000Y21621D01*
X-45000D01*
X-45429Y21536D01*
X-45793Y21293D01*
X-45908Y21122D01*
X-46535D01*
X-46563Y21149D01*
X-46620Y21235D01*
Y22352D01*
X-43772D01*
X-43245Y22457D01*
X-42798Y22755D01*
X-40479Y25074D01*
X-40415Y25087D01*
X-39919Y25419D01*
X-39587Y25915D01*
X-39471Y26500D01*
X-39587Y27085D01*
X-39919Y27581D01*
X-40415Y27913D01*
X-41000Y28029D01*
X-41585Y27913D01*
X-42081Y27581D01*
X-42413Y27085D01*
X-42426Y27021D01*
X-44342Y25105D01*
X-46620D01*
Y27722D01*
X-54539D01*
X-54730Y28184D01*
X-53035Y29878D01*
X-38000D01*
X-38000Y29878D01*
X-37571Y29964D01*
X-37207Y30207D01*
X-28035Y39378D01*
X-26693D01*
X-26502Y38917D01*
X-33959Y31459D01*
X-34149Y31000D01*
Y28000D01*
X-33959Y27541D01*
X-33500Y27351D01*
X-21000D01*
X-20541Y27541D01*
X-19889Y28192D01*
X-19517Y28041D01*
X-19418Y27957D01*
Y23611D01*
X-19348Y23260D01*
X-19149Y22963D01*
X-18797Y22611D01*
X-18500Y22412D01*
X-18148Y22342D01*
X-17068D01*
Y21479D01*
X-11931D01*
Y25041D01*
X-17068D01*
Y24178D01*
X-17582D01*
Y27620D01*
X-16922Y28281D01*
X-16922Y28281D01*
X-16852Y28351D01*
X-5500D01*
X-5041Y28541D01*
X-4851Y29000D01*
Y40500D01*
X-5041Y40959D01*
X-6041Y41959D01*
X-6500Y42149D01*
X-6437Y42624D01*
X-2000D01*
X-1473Y42728D01*
X-1027Y43027D01*
X973Y45027D01*
X1272Y45473D01*
X1376Y46000D01*
X1376Y46000D01*
Y99500D01*
X1376Y99500D01*
X1272Y100027D01*
X973Y100473D01*
X-857Y102303D01*
Y108643D01*
X-9143D01*
Y100357D01*
X-2803D01*
X-1376Y98930D01*
Y46570D01*
X-2570Y45376D01*
X-3345D01*
X-3613Y45876D01*
X-3587Y45915D01*
X-3471Y46500D01*
X-3587Y47085D01*
X-3919Y47581D01*
X-4415Y47913D01*
X-5000Y48029D01*
X-5585Y47913D01*
X-6021Y47622D01*
X-9000D01*
X-9000Y47622D01*
X-9429Y47536D01*
X-9793Y47293D01*
X-9793Y47293D01*
X-9965Y47122D01*
X-16227D01*
X-16546Y47622D01*
X-16471Y48000D01*
X-16587Y48585D01*
X-16919Y49081D01*
X-17415Y49413D01*
X-17878Y49505D01*
Y54035D01*
X-14707Y57207D01*
X-14707Y57207D01*
X-14464Y57571D01*
X-14378Y58000D01*
X-14378Y58000D01*
Y66500D01*
X-14464Y66929D01*
X-14707Y67293D01*
X-14707Y67293D01*
X-16618Y69204D01*
X-16707Y69738D01*
X-16360Y70085D01*
X-16360Y70085D01*
X-16117Y70448D01*
X-16032Y70878D01*
Y71843D01*
X-15919Y71919D01*
X-15587Y72415D01*
X-15471Y73000D01*
X-15587Y73585D01*
X-15783Y73878D01*
X-15532Y74378D01*
X-9465D01*
X-9015Y73929D01*
X-8913Y73415D01*
X-8581Y72919D01*
X-8085Y72587D01*
X-7500Y72471D01*
X-6915Y72587D01*
X-6419Y72919D01*
X-6087Y73415D01*
X-5971Y74000D01*
X-6087Y74585D01*
X-6419Y75081D01*
X-6915Y75413D01*
X-7429Y75515D01*
X-8207Y76293D01*
X-8571Y76536D01*
X-8613Y76545D01*
X-8652Y76592D01*
X-8803Y77092D01*
X-8587Y77415D01*
X-8471Y78000D01*
X-8587Y78585D01*
X-8919Y79081D01*
X-9415Y79413D01*
X-10000Y79529D01*
X-10585Y79413D01*
X-11021Y79122D01*
X-17864D01*
X-17940Y79198D01*
X-18304Y79441D01*
X-18733Y79526D01*
X-18733Y79526D01*
X-19724D01*
Y79595D01*
X-26830D01*
Y75246D01*
X-19725D01*
X-19725Y75246D01*
Y75246D01*
X-19724Y75246D01*
X-19283Y75105D01*
X-18884Y74707D01*
X-18884Y74707D01*
X-18520Y74464D01*
X-18398Y74439D01*
X-18374Y74413D01*
X-18208Y73892D01*
X-18413Y73585D01*
X-18529Y73000D01*
X-18413Y72415D01*
X-18275Y72208D01*
Y71652D01*
X-19724D01*
Y71721D01*
X-26830D01*
Y69684D01*
X-39653D01*
X-39919Y70081D01*
X-40415Y70413D01*
X-41000Y70529D01*
X-41585Y70413D01*
X-41630Y70383D01*
X-42088Y70281D01*
X-42088Y70281D01*
X-42088Y70281D01*
X-44132D01*
Y72050D01*
X-44202Y72401D01*
X-44401Y72699D01*
X-46561Y74859D01*
X-46512Y75356D01*
X-46419Y75419D01*
X-46087Y75915D01*
X-45971Y76500D01*
X-46061Y76956D01*
X-46065Y77134D01*
X-45841Y77617D01*
X-45707Y77707D01*
X-45592Y77878D01*
X-43908D01*
X-43793Y77707D01*
X-43429Y77464D01*
X-43000Y77378D01*
X-42000D01*
X-41571Y77464D01*
X-41207Y77707D01*
X-40964Y78071D01*
X-40937Y78206D01*
X-40500Y78378D01*
X-40071Y78464D01*
X-39707Y78707D01*
X-38707Y79707D01*
X-38707Y79707D01*
X-38464Y80071D01*
X-38378Y80500D01*
Y86535D01*
X-29207Y95707D01*
X-29207Y95707D01*
X-28964Y96071D01*
X-28878Y96500D01*
X-28878Y96500D01*
Y98980D01*
X-27911Y99381D01*
X-27045Y100045D01*
X-26381Y100910D01*
X-25963Y101918D01*
X-25821Y103000D01*
X-25963Y104082D01*
X-26381Y105089D01*
X-27045Y105955D01*
X-27911Y106619D01*
X-28918Y107037D01*
X-30000Y107179D01*
X-31082Y107037D01*
X-32089Y106619D01*
X-32955Y105955D01*
X-33619Y105089D01*
X-33851Y104531D01*
X-34351Y104630D01*
Y107500D01*
X-34541Y107959D01*
X-35000Y108149D01*
X-45000D01*
X-45459Y107959D01*
X-45649Y107500D01*
Y95649D01*
X-54844D01*
X-55027Y95891D01*
X-55148Y96149D01*
X-55098Y96399D01*
X-54649Y96630D01*
X-54585Y96587D01*
X-54000Y96471D01*
X-53415Y96587D01*
X-52919Y96919D01*
X-52587Y97415D01*
X-52471Y98000D01*
X-52587Y98585D01*
X-52919Y99081D01*
X-53415Y99413D01*
X-54000Y99529D01*
X-54585Y99413D01*
X-55081Y99081D01*
X-55158Y98968D01*
X-55582Y98883D01*
X-55946Y98640D01*
X-55946Y98640D01*
X-55965Y98622D01*
X-56200D01*
X-56200Y98622D01*
X-56200Y98622D01*
X-57200D01*
X-57629Y98536D01*
X-57993Y98293D01*
X-58236Y97929D01*
X-58322Y97500D01*
Y96500D01*
X-58252Y96149D01*
X-58373Y95891D01*
X-58556Y95649D01*
X-59644D01*
X-59827Y95891D01*
X-59948Y96149D01*
X-59878Y96500D01*
Y97500D01*
X-59964Y97929D01*
X-60207Y98293D01*
X-60571Y98536D01*
X-61000Y98622D01*
X-61535D01*
X-62054Y99140D01*
X-62418Y99383D01*
X-62843Y99468D01*
X-62919Y99581D01*
X-63415Y99913D01*
X-64000Y100029D01*
X-64585Y99913D01*
X-65081Y99581D01*
X-65413Y99085D01*
X-65516Y98565D01*
X-65800Y98622D01*
X-66303D01*
X-66643Y98994D01*
X-66594Y99313D01*
X-66511Y99504D01*
X-66207Y99707D01*
X-65964Y100071D01*
X-65878Y100500D01*
Y101500D01*
X-65964Y101929D01*
X-66207Y102293D01*
X-66571Y102536D01*
X-67000Y102622D01*
X-68000D01*
X-68429Y102536D01*
X-68793Y102293D01*
X-68908Y102122D01*
X-70500D01*
X-70500Y102122D01*
X-70929Y102036D01*
X-71293Y101793D01*
X-71293Y101793D01*
X-71465Y101622D01*
X-72000D01*
X-72000Y101622D01*
X-72000Y101622D01*
X-72535D01*
X-74878Y103965D01*
Y104500D01*
X-74964Y104929D01*
X-75207Y105293D01*
X-75095Y105819D01*
X-73535Y107378D01*
X-68622D01*
Y106408D01*
X-68793Y106293D01*
X-69036Y105929D01*
X-69122Y105500D01*
Y104500D01*
X-69036Y104071D01*
X-68793Y103707D01*
X-68429Y103464D01*
X-68000Y103378D01*
X-67000D01*
X-66571Y103464D01*
X-66207Y103707D01*
X-65964Y104071D01*
X-65878Y104500D01*
Y105500D01*
X-65964Y105929D01*
X-66207Y106293D01*
X-66378Y106408D01*
Y107478D01*
X-66035Y107707D01*
X-65364Y108378D01*
X-61965D01*
X-61293Y107707D01*
X-61293Y107707D01*
X-60622Y107035D01*
Y106408D01*
X-60793Y106293D01*
X-61036Y105929D01*
X-61122Y105500D01*
Y104500D01*
X-61036Y104071D01*
X-60793Y103707D01*
X-60622Y103592D01*
Y102408D01*
X-60793Y102293D01*
X-61036Y101929D01*
X-61122Y101500D01*
Y100500D01*
X-61036Y100071D01*
X-60793Y99707D01*
X-60429Y99464D01*
X-60000Y99378D01*
X-59000D01*
X-58571Y99464D01*
X-58207Y99707D01*
X-57964Y100071D01*
X-57878Y100500D01*
Y101500D01*
X-57964Y101929D01*
X-58207Y102293D01*
X-58378Y102408D01*
Y103592D01*
X-58207Y103707D01*
X-57964Y104071D01*
X-57878Y104500D01*
Y105500D01*
X-57964Y105929D01*
X-58207Y106293D01*
X-58378Y106408D01*
Y107378D01*
X-52622D01*
Y106408D01*
X-52793Y106293D01*
X-53036Y105929D01*
X-53122Y105500D01*
Y104500D01*
X-53036Y104071D01*
X-52793Y103707D01*
X-52429Y103464D01*
X-52000Y103378D01*
X-51000D01*
X-50571Y103464D01*
X-50207Y103707D01*
X-49964Y104071D01*
X-49878Y104500D01*
Y105500D01*
X-49964Y105929D01*
X-50207Y106293D01*
X-50378Y106408D01*
Y107914D01*
X-50464Y108343D01*
X-50707Y108707D01*
X-50707Y108707D01*
X-51293Y109293D01*
X-51657Y109536D01*
X-52086Y109622D01*
X-52086Y109622D01*
X-60035D01*
X-60707Y110293D01*
X-60727Y110908D01*
X-60655Y111000D01*
X-11500D01*
X-8500Y114000D01*
Y124000D01*
X-5000Y127500D01*
X-4500Y127000D01*
D02*
G37*
G36*
X-35000Y93500D02*
X-39500Y89000D01*
X-65500D01*
X-69000Y92500D01*
X-75500D01*
Y94660D01*
X-75497Y94677D01*
Y95500D01*
X-68500D01*
X-68000Y95000D01*
X-45000D01*
Y107500D01*
X-35000D01*
Y93500D01*
D02*
G37*
G36*
X-40622Y86622D02*
Y81378D01*
X-41000Y81000D01*
X-53000D01*
X-55000Y83000D01*
X-67500D01*
X-69500Y81000D01*
Y79500D01*
X-70000Y79000D01*
X-75500D01*
Y82000D01*
X-75110Y82780D01*
X-74591Y82867D01*
X-74590Y82867D01*
X-74574Y82871D01*
X-74546Y82864D01*
X-74536Y82859D01*
X-74500Y82855D01*
X-74463Y82865D01*
X-74427Y82851D01*
X-70000D01*
X-69639Y83000D01*
X-69500D01*
X-67800Y84700D01*
X-67506Y85075D01*
X-67007Y85574D01*
X-66982Y85636D01*
X-66926Y85673D01*
X-66825Y85825D01*
X-66673Y85927D01*
X-66636Y85982D01*
X-66574Y86007D01*
X-66041Y86541D01*
X-65851Y87000D01*
Y87191D01*
X-65217Y88000D01*
X-42000D01*
X-40622Y86622D01*
D02*
G37*
G36*
X-53593Y80675D02*
X-53461Y80506D01*
X-53483Y80009D01*
X-53536Y79929D01*
X-53622Y79500D01*
Y78500D01*
X-53536Y78071D01*
X-53293Y77707D01*
X-52929Y77464D01*
X-52500Y77378D01*
X-51500D01*
X-51071Y77464D01*
X-50707Y77707D01*
X-50592Y77878D01*
X-49746D01*
X-49697Y77378D01*
X-49851Y77348D01*
X-50149Y77149D01*
X-51176Y76122D01*
X-52000D01*
X-52429Y76036D01*
X-52793Y75793D01*
X-53036Y75429D01*
X-53122Y75000D01*
Y74000D01*
X-53105Y73918D01*
X-53489Y73418D01*
X-59014D01*
X-59206Y73880D01*
X-56707Y76379D01*
X-56707Y76379D01*
X-56464Y76742D01*
X-56378Y77172D01*
X-56378Y77172D01*
Y77364D01*
X-56107Y77635D01*
X-56107Y77635D01*
X-55864Y77999D01*
X-55778Y78428D01*
X-55778Y78429D01*
Y79659D01*
X-55707Y79707D01*
X-55464Y80071D01*
X-55378Y80500D01*
Y81500D01*
X-55441Y81816D01*
X-55037Y82107D01*
X-55029Y82110D01*
X-53593Y80675D01*
D02*
G37*
G36*
X-19059Y68686D02*
X-19036Y68571D01*
X-18793Y68207D01*
X-16622Y66035D01*
Y58465D01*
X-19793Y55293D01*
X-20036Y54929D01*
X-20122Y54500D01*
X-20121Y54500D01*
Y48586D01*
X-20036Y48157D01*
X-19807Y47814D01*
X-19847Y47598D01*
X-20057Y47350D01*
X-20242Y47328D01*
X-21879Y48965D01*
Y51000D01*
X-21878Y51000D01*
X-21964Y51429D01*
X-22207Y51793D01*
X-22207Y51793D01*
X-27964Y57550D01*
Y59950D01*
X-27292Y60622D01*
X-26830Y60431D01*
Y59498D01*
X-19724D01*
Y61466D01*
Y65403D01*
Y68994D01*
X-19585Y69037D01*
X-19059Y68686D01*
D02*
G37*
G36*
X-5500Y40500D02*
Y29000D01*
X-17500D01*
Y35000D01*
X-12000Y40500D01*
Y41500D01*
X-6500D01*
X-5500Y40500D01*
D02*
G37*
G36*
X-13500Y42000D02*
Y40000D01*
X-19000Y34500D01*
Y30000D01*
X-21000Y28000D01*
X-33500D01*
Y31000D01*
X-22000Y42500D01*
X-14000D01*
X-13500Y42000D01*
D02*
G37*
%LPC*%
G36*
X-89049Y85635D02*
X-91014D01*
X-91326Y85573D01*
X-91590Y85397D01*
X-91612Y85363D01*
X-92453D01*
X-92453Y85363D01*
X-92765Y85301D01*
X-93029Y85124D01*
X-94305Y83849D01*
X-94357D01*
X-94638Y84036D01*
X-95067Y84122D01*
X-96067D01*
X-96496Y84036D01*
X-96860Y83793D01*
X-97103Y83429D01*
X-97126Y83316D01*
X-99008D01*
X-99031Y83429D01*
X-99274Y83793D01*
X-99638Y84036D01*
X-100067Y84122D01*
X-101067D01*
X-101496Y84036D01*
X-101860Y83793D01*
X-102103Y83429D01*
X-102189Y83000D01*
Y82000D01*
X-102103Y81571D01*
X-101860Y81207D01*
X-101496Y80964D01*
X-101067Y80878D01*
X-100067D01*
X-99638Y80964D01*
X-99274Y81207D01*
X-99031Y81571D01*
X-99008Y81684D01*
X-97126D01*
X-97103Y81571D01*
X-96860Y81207D01*
X-96496Y80964D01*
X-96067Y80878D01*
X-95067D01*
X-94638Y80964D01*
X-94274Y81207D01*
X-94031Y81571D01*
X-93945Y82000D01*
Y82222D01*
X-93655Y82279D01*
X-93390Y82456D01*
X-92115Y83732D01*
X-91612D01*
X-91590Y83698D01*
X-91326Y83521D01*
X-91014Y83459D01*
X-89049D01*
X-88737Y83521D01*
X-88473Y83698D01*
X-88297Y83962D01*
X-88235Y84273D01*
Y84821D01*
X-88297Y85133D01*
X-88473Y85397D01*
X-88737Y85573D01*
X-89049Y85635D01*
D02*
G37*
G36*
X-19724Y87469D02*
X-26830D01*
Y85088D01*
Y81151D01*
X-19724D01*
Y81220D01*
X-14069D01*
X-13585Y80897D01*
X-13000Y80781D01*
X-12415Y80897D01*
X-11919Y81229D01*
X-11587Y81725D01*
X-11471Y82310D01*
X-11546Y82689D01*
X-11256Y83144D01*
X-10761Y83175D01*
X-7515Y79929D01*
X-7413Y79415D01*
X-7081Y78919D01*
X-6585Y78587D01*
X-6000Y78471D01*
X-5415Y78587D01*
X-4919Y78919D01*
X-4587Y79415D01*
X-4471Y80000D01*
X-4587Y80585D01*
X-4919Y81081D01*
X-5415Y81413D01*
X-5929Y81515D01*
X-9517Y85103D01*
X-9881Y85347D01*
X-10310Y85432D01*
X-10310Y85432D01*
X-19724D01*
Y87469D01*
D02*
G37*
G36*
X-40000Y104122D02*
X-40429Y104036D01*
X-40793Y103793D01*
X-43836Y100750D01*
X-44080Y100386D01*
X-44165Y99957D01*
X-44080Y99528D01*
X-43836Y99164D01*
X-43472Y98921D01*
X-43043Y98835D01*
X-42614Y98921D01*
X-42250Y99164D01*
X-39207Y102207D01*
X-38964Y102571D01*
X-38878Y103000D01*
X-38964Y103429D01*
X-39207Y103793D01*
X-39571Y104036D01*
X-40000Y104122D01*
D02*
G37*
%LPD*%
D10*
X-42819Y67819D02*
X-39625Y64625D01*
X-23277D01*
X-45050Y68500D02*
X-44369Y67819D01*
X-42819D01*
X-40784Y69000D02*
X-40346Y68562D01*
X-41000Y69000D02*
X-40784D01*
X-9000Y46500D02*
X-5000D01*
X-9500Y46000D02*
X-9000Y46500D01*
X-19000Y48586D02*
X-18802D01*
X-19000D02*
Y54500D01*
X-18216Y48000D02*
X-18000D01*
X-20500Y46000D02*
X-9500D01*
X-18802Y48586D02*
X-18216Y48000D01*
X-23000Y48500D02*
Y51000D01*
Y48500D02*
X-20500Y46000D01*
X-29086Y60414D02*
X-26934Y62566D01*
X-29086Y57086D02*
Y60414D01*
Y57086D02*
X-23000Y51000D01*
X-23368Y62566D02*
X-23277Y62657D01*
X-26934Y62566D02*
X-23368D01*
X-23277Y62657D02*
Y64625D01*
X-38000Y31000D02*
X-28500Y40500D01*
X-18000D01*
X-53500Y31000D02*
X-38000D01*
X-86500Y66500D02*
X-86000Y66000D01*
X-83000D01*
X-82000Y65000D01*
X-71418Y67819D02*
X-68631D01*
X-70549Y66000D02*
X-63586D01*
X-74237Y65000D02*
X-71418Y67819D01*
X-82000Y65000D02*
X-74237D01*
X-75000Y61549D02*
X-70549Y66000D01*
X-68631Y67819D02*
X-67950Y68500D01*
X-75000Y58000D02*
Y61549D01*
X-72000Y52500D02*
Y62000D01*
X-71181Y62819D01*
X-68631D01*
X-86468Y25469D02*
X-84000Y23000D01*
X-81266Y22150D02*
X-61234D01*
X-84000Y23000D02*
X-82116D01*
X-81266Y22150D01*
X-86468Y25469D02*
Y40937D01*
X-97000Y86000D02*
Y88000D01*
X-87087D02*
X-86587Y87500D01*
X-97000Y88000D02*
X-87087D01*
X-57617Y26883D02*
X-53500Y31000D01*
X-97500Y99000D02*
Y99500D01*
X-97000Y97500D02*
X-96500Y97000D01*
X-97000Y97500D02*
Y98500D01*
X-97500Y99000D02*
X-97000Y98500D01*
X-78032Y41500D02*
X-74000D01*
X-18000Y70531D02*
X-17500D01*
X-23277D02*
X-18000D01*
X-18938Y58629D02*
X-18427Y58118D01*
X-19000Y54500D02*
X-15500Y58000D01*
X-18427Y58118D02*
X-18210D01*
X-23187Y58629D02*
X-18938D01*
X-23277Y58720D02*
X-23187Y58629D01*
X-18000Y69000D02*
X-15500Y66500D01*
Y58000D02*
Y66500D01*
X-18000Y69000D02*
Y70531D01*
X-10310Y84310D02*
X-6000Y80000D01*
X-23277Y84310D02*
X-10310D01*
X-9000Y75500D02*
X-7500Y74000D01*
X-18091Y75500D02*
X-9000D01*
X-17153Y72847D02*
X-17000Y73000D01*
X-17153Y70878D02*
Y72847D01*
X-17500Y70531D02*
X-17153Y70878D01*
X-17873Y80373D02*
X-17500Y80000D01*
X-23277Y80373D02*
X-17873D01*
X-40346Y68562D02*
X-23277D01*
Y82342D02*
X-13000D01*
X-19027Y76436D02*
X-18091Y75500D01*
X-18733Y78405D02*
X-18328Y78000D01*
X-10000D01*
X-23277Y78405D02*
X-18733D01*
X-23277Y76436D02*
X-19027D01*
X-78500Y32000D02*
Y40843D01*
X-81104Y20150D02*
X-60971D01*
X-105500Y73500D02*
X-103500D01*
X-57393Y23728D02*
X-51000D01*
X-51500Y101000D02*
X-49000D01*
X-21914Y104000D02*
X-15500D01*
X-22500Y104586D02*
X-21914Y104000D01*
X-22500Y104586D02*
Y105500D01*
X-23000Y106000D02*
X-22500Y105500D01*
X-15500Y104000D02*
X-15000Y104500D01*
X-57617Y25767D02*
Y26883D01*
X-61234Y22150D02*
X-57617Y25767D01*
X-60971Y20150D02*
X-57393Y23728D01*
X-80500Y50500D02*
Y55035D01*
X-71412Y51863D02*
Y51912D01*
X-67049Y47500D02*
X-53000D01*
X-71412Y51863D02*
X-67049Y47500D01*
X-72000Y52500D02*
X-71412Y51912D01*
X-53000Y47500D02*
X-52414Y46914D01*
X-63586Y66000D02*
X-63000Y65414D01*
Y60000D02*
Y65414D01*
X-64088Y58912D02*
X-63000Y60000D01*
X-67950Y58500D02*
X-67538Y58912D01*
X-64088D01*
X-52414Y42686D02*
X-51000Y41272D01*
X-52414Y42686D02*
Y46914D01*
X-68631Y62819D02*
X-67950Y63500D01*
X-75000Y51500D02*
Y54000D01*
X-40500Y17000D02*
Y20000D01*
X-50614Y23728D02*
X-47586Y20700D01*
Y20586D02*
Y20700D01*
Y20586D02*
X-47000Y20000D01*
X-44500D01*
X-40000Y45000D02*
X-39500Y44500D01*
Y43500D02*
Y44500D01*
X-34637Y43100D02*
X-33900D01*
X-34837Y42900D02*
X-34637Y43100D01*
X-38900Y42900D02*
X-34837D01*
X-39500Y43500D02*
X-38900Y42900D01*
X-33900Y43100D02*
X-32000Y45000D01*
X-45050Y53500D02*
X-43869D01*
X-40500Y50131D01*
Y49500D02*
Y50131D01*
Y49500D02*
X-40000Y49000D01*
Y45000D02*
Y49000D01*
X-28000Y45000D02*
Y49000D01*
X-32000Y45000D02*
Y49000D01*
X-36000Y45000D02*
Y49000D01*
X-39235Y53734D02*
Y53734D01*
X-36164Y49164D02*
X-36000Y49000D01*
X-36164Y49164D02*
Y50664D01*
X-39235Y53734D02*
X-36164Y50664D01*
X-41969Y56469D02*
X-39235Y53734D01*
X-41969Y56469D02*
Y56600D01*
X-40369Y57132D02*
X-35194Y51957D01*
X-30957D01*
X-40369Y57132D02*
Y60000D01*
X-43869Y63500D02*
X-40369Y60000D01*
X-45050Y58500D02*
X-43869D01*
X-41969Y56600D01*
X-30957Y51957D02*
X-28000Y49000D01*
X-45050Y63500D02*
X-43869D01*
X-103500Y73500D02*
X-102000Y72000D01*
Y68525D02*
X-101000Y67525D01*
X-102000Y68525D02*
Y72000D01*
X-101000Y52475D02*
X-91975D01*
X-86468Y46968D01*
Y40937D02*
Y46968D01*
X-74500Y68000D02*
Y71500D01*
X-75000Y67500D02*
X-74500Y68000D01*
X-79250Y67750D02*
X-79000Y67500D01*
X-79250Y67750D02*
Y71250D01*
X-79500Y71500D02*
X-79250Y71250D01*
X-84000Y69000D02*
Y72000D01*
X-80500Y60966D02*
X-80387D01*
X-78207Y58786D01*
Y58707D02*
Y58786D01*
Y58707D02*
X-77500Y58000D01*
X-75000D01*
X-93500Y58500D02*
X-90500D01*
Y54500D02*
Y58500D01*
X-93500Y62500D02*
X-90500D01*
Y66500D01*
X-30000Y96500D02*
Y103000D01*
X-39500Y87000D02*
X-30000Y96500D01*
X-39500Y80500D02*
Y87000D01*
X-40500Y79500D02*
X-39500Y80500D01*
X-42000Y79500D02*
X-40500D01*
X-42500Y79000D02*
X-42000Y79500D01*
X-43043Y99957D02*
X-40000Y103000D01*
X-47000Y79000D02*
X-42500D01*
X-52000D02*
X-47000D01*
X-56200Y97500D02*
X-55500D01*
X-56700Y97000D02*
X-56200Y97500D01*
X-55500D02*
X-55153Y97847D01*
X-54153D01*
X-54000Y98000D01*
X-62847Y98347D02*
X-61500Y97000D01*
X-63847Y98347D02*
X-62847D01*
X-64000Y98500D02*
X-63847Y98347D01*
X-67736Y98436D02*
X-66300Y97000D01*
X-69500Y98000D02*
X-69347Y98153D01*
X-68847D01*
X-68564Y98436D01*
X-67736D01*
X-56900Y78428D02*
Y80900D01*
X-57500Y77828D02*
X-56900Y78428D01*
X-57500Y77172D02*
Y77828D01*
X-60672Y74000D02*
X-57500Y77172D01*
X-55500Y74500D02*
Y77000D01*
X-57000Y81000D02*
X-56900Y80900D01*
X-63500Y74000D02*
X-60672D01*
X-65500Y76000D02*
X-63500Y74000D01*
X-82579Y79421D02*
Y80976D01*
X-82551Y81004D01*
X-83500Y78000D02*
Y78500D01*
X-82579Y79421D01*
X-80000Y78000D02*
Y78500D01*
X-80500Y79000D02*
Y81000D01*
Y79000D02*
X-80000Y78500D01*
X-80583Y81004D02*
X-80579Y81000D01*
X-80500D01*
X-76618Y96382D02*
X-75500Y97500D01*
X-78038Y97574D02*
Y97790D01*
X-78500Y96172D02*
Y97112D01*
X-78038Y97574D01*
X-75000Y97500D02*
X-72500Y100000D01*
X-76618Y94677D02*
Y96382D01*
X-75500Y97500D02*
X-75000D01*
X-78587Y96085D02*
X-78500Y96172D01*
X-78587Y94677D02*
Y96085D01*
X-80555Y96945D02*
X-80500Y97000D01*
X-80555Y94024D02*
Y96945D01*
X-82579Y94024D02*
Y96499D01*
X-83500Y97420D02*
X-82579Y96499D01*
X-83500Y97420D02*
Y97500D01*
X-80583Y93996D02*
X-80555Y94024D01*
X-85741Y96913D02*
X-84888Y96060D01*
X-85741Y96913D02*
Y98759D01*
X-88091Y97000D02*
X-86488Y95397D01*
X-91914Y97000D02*
X-88091D01*
X-86488Y93996D02*
Y95397D01*
X-84888Y95018D02*
Y96060D01*
Y95018D02*
X-84547Y94677D01*
X-85741Y98759D02*
X-84500Y100000D01*
X-82579Y94024D02*
X-82551Y93996D01*
X-92000Y71500D02*
X-89000D01*
X-92500Y71000D02*
X-92000Y71500D01*
X-84000D02*
X-79500D01*
X-89000D02*
X-84000D01*
X-51500Y105000D02*
Y107914D01*
X-52086Y108500D02*
X-51500Y107914D01*
X-60500Y108500D02*
X-52086D01*
X-60500D02*
X-59500Y107500D01*
X-61500Y109500D02*
X-60500Y108500D01*
X-74000D02*
X-67500D01*
Y105000D02*
Y108000D01*
X-67000Y108500D02*
X-66828D01*
X-67500Y108000D02*
X-67000Y108500D01*
X-66828D02*
X-65828Y109500D01*
X-76500Y106000D02*
X-74000Y108500D01*
X-65828Y109500D02*
X-61500D01*
X-72500Y104500D02*
Y106000D01*
X-59500Y105000D02*
Y107500D01*
X-63500Y105000D02*
Y107500D01*
Y101000D02*
Y105000D01*
X-76500Y104000D02*
Y106000D01*
X-55500Y101000D02*
X-51500D01*
X-55500D02*
Y105000D01*
X-59500Y101000D02*
Y105000D01*
X-70500Y101000D02*
X-67500D01*
X-72500Y100000D02*
X-72000Y100500D01*
X-71000D01*
X-70500Y101000D01*
X-76500Y104000D02*
X-72500Y100000D01*
X-80500Y104000D02*
Y106500D01*
X-92500Y97586D02*
Y100000D01*
Y97586D02*
X-91914Y97000D01*
X-95000Y100000D02*
X-92500D01*
X-80500D02*
X-76500D01*
X-84500D02*
X-80500D01*
X-84500D02*
Y104000D01*
X-88500D02*
Y107000D01*
X-92500Y104000D02*
Y106500D01*
X-97000Y102000D02*
X-95000Y100000D01*
D16*
X-25384Y44000D02*
X-2000D01*
X-54000Y34000D02*
X-39000D01*
X-30350Y42650D01*
X-26734D02*
X-25384Y44000D01*
X-30350Y42650D02*
X-26734D01*
X-60250Y27750D02*
X-54000Y34000D01*
X-86500Y62500D02*
Y66500D01*
Y58500D02*
Y62500D01*
Y54500D02*
Y58500D01*
X-82531Y32469D02*
Y40937D01*
X-83500Y31500D02*
X-82531Y32469D01*
X-83500Y27000D02*
X-80750Y24250D01*
X-83500Y27000D02*
Y31500D01*
X-61750Y24250D02*
X-60250Y25750D01*
X-80750Y24250D02*
X-61750D01*
X-60250Y25750D02*
Y27750D01*
X-50614Y23728D02*
X-43772D01*
X-51000D02*
X-50614D01*
X-43772D02*
X-41000Y26500D01*
X-2000Y44000D02*
X0Y46000D01*
Y99500D01*
X-5000Y104500D02*
X0Y99500D01*
D17*
X-88461Y94000D02*
X-88457Y93996D01*
X-92000Y94000D02*
X-88461D01*
X-93000Y95000D02*
X-92000Y94000D01*
X-90500Y100500D02*
Y102000D01*
Y100500D02*
X-90000Y100000D01*
X-88500D01*
X-92500D02*
X-91900Y99400D01*
X-103500Y102000D02*
X-101000D01*
Y97000D02*
Y102000D01*
X-100500Y75500D02*
Y76000D01*
X-100567Y76067D02*
Y78500D01*
Y76067D02*
X-100500Y76000D01*
X-92453Y84547D02*
X-90031D01*
X-93967Y83033D02*
X-92453Y84547D01*
X-95567Y82500D02*
X-95034Y83033D01*
X-93967D01*
X-100567Y82500D02*
X-95567D01*
X-101000Y93000D02*
X-96500D01*
X-96000Y92500D01*
X-90740Y90453D02*
X-90031D01*
X-92787Y92500D02*
X-90740Y90453D01*
X-96000Y92500D02*
X-92787D01*
D18*
X-30000Y103000D02*
D03*
X-15000Y104500D02*
D03*
D19*
X-40000Y103000D02*
D03*
X-5000Y104500D02*
D03*
D20*
X0Y122178D02*
D03*
Y0D02*
D03*
D21*
X-41000Y69000D02*
D03*
X-9500Y36000D02*
D03*
X-5000Y46500D02*
D03*
X-18000Y48000D02*
D03*
Y40500D02*
D03*
X-97000Y86000D02*
D03*
Y88000D02*
D03*
X0Y114000D02*
D03*
X-4500Y114500D02*
D03*
X5000D02*
D03*
Y105500D02*
D03*
Y95500D02*
D03*
X7500Y81500D02*
D03*
X4500Y68500D02*
D03*
X5500Y54500D02*
D03*
X7500Y47000D02*
D03*
X2000Y13000D02*
D03*
X-4000Y10500D02*
D03*
X-13000Y11500D02*
D03*
X-30500Y12500D02*
D03*
X-48000Y13000D02*
D03*
X-22500Y12000D02*
D03*
X-39500Y11500D02*
D03*
X-55000Y13000D02*
D03*
X-66500D02*
D03*
X-75500D02*
D03*
X-82500Y12500D02*
D03*
X-90500Y13000D02*
D03*
X-100000Y14000D02*
D03*
X-108000Y13500D02*
D03*
X-110000Y18500D02*
D03*
Y25500D02*
D03*
Y33500D02*
D03*
Y46000D02*
D03*
X-110500Y56500D02*
D03*
Y68000D02*
D03*
X-109000Y76000D02*
D03*
X-108500Y81500D02*
D03*
Y86000D02*
D03*
Y93000D02*
D03*
X-47500Y76500D02*
D03*
X-93000Y78500D02*
D03*
X-97500Y99500D02*
D03*
X-74000Y41500D02*
D03*
X-18210Y58118D02*
D03*
X-6000Y80000D02*
D03*
X-7500Y74000D02*
D03*
X-17000Y73000D02*
D03*
X-17500Y80000D02*
D03*
X-39000Y76000D02*
D03*
X-13000Y82310D02*
D03*
X-10000Y78000D02*
D03*
X-29500Y90000D02*
D03*
X-78500Y32000D02*
D03*
X-81104Y20150D02*
D03*
X-105500Y73500D02*
D03*
X-41000Y26500D02*
D03*
X-23500Y44000D02*
D03*
X-23000Y100500D02*
D03*
X-49000Y101000D02*
D03*
X-23000Y106000D02*
D03*
X-80500Y50500D02*
D03*
X-75000Y51500D02*
D03*
X-40500Y17000D02*
D03*
X-2000Y27000D02*
D03*
X-84000Y69000D02*
D03*
X-93500Y58500D02*
D03*
Y62500D02*
D03*
X-54000Y98000D02*
D03*
X-64000Y98500D02*
D03*
X-69500Y98000D02*
D03*
X-55500Y77000D02*
D03*
X-65500Y76000D02*
D03*
X-61500D02*
D03*
X-83500Y78000D02*
D03*
X-80000D02*
D03*
X-78038Y97790D02*
D03*
X-80500Y97000D02*
D03*
X-83500Y97500D02*
D03*
X-92500Y71000D02*
D03*
X-72500Y106000D02*
D03*
X-63500Y107500D02*
D03*
X-80500Y106500D02*
D03*
X-93000Y95000D02*
D03*
X-90500Y102000D02*
D03*
X-88500Y107000D02*
D03*
X-92500Y106500D02*
D03*
X-103500Y102000D02*
D03*
X-100500Y75500D02*
D03*
D22*
X-76547Y87500D02*
D03*
X-79500Y84449D02*
D03*
Y87500D02*
D03*
Y90551D02*
D03*
X-83634Y84449D02*
D03*
Y87500D02*
D03*
Y90551D02*
D03*
X-86587Y87500D02*
D03*
D28*
X-30000Y30000D02*
D03*
Y26000D02*
D03*
X-8000Y31000D02*
D03*
Y27000D02*
D03*
X-75000Y54000D02*
D03*
Y58000D02*
D03*
X-74500Y75500D02*
D03*
Y71500D02*
D03*
X-72500Y104000D02*
D03*
Y100000D02*
D03*
X-76500Y104000D02*
D03*
Y100000D02*
D03*
X-51500Y101000D02*
D03*
Y105000D02*
D03*
X-89000Y71500D02*
D03*
Y75500D02*
D03*
X-80500Y104000D02*
D03*
Y100000D02*
D03*
X-92500Y104000D02*
D03*
Y100000D02*
D03*
X-79500Y71500D02*
D03*
Y75500D02*
D03*
X-84000Y71500D02*
D03*
Y75500D02*
D03*
X-50000Y87000D02*
D03*
Y91000D02*
D03*
X-45500Y87000D02*
D03*
Y91000D02*
D03*
X-66300Y97000D02*
D03*
Y93000D02*
D03*
X-61500Y97000D02*
D03*
Y93000D02*
D03*
X-56700Y97000D02*
D03*
Y93000D02*
D03*
X-57000Y81000D02*
D03*
Y85000D02*
D03*
X-52000Y83000D02*
D03*
Y79000D02*
D03*
X-61500Y81000D02*
D03*
Y85000D02*
D03*
X-66000Y81000D02*
D03*
Y85000D02*
D03*
X-47000Y83000D02*
D03*
Y79000D02*
D03*
X-42500Y83000D02*
D03*
Y79000D02*
D03*
X-101000Y93000D02*
D03*
Y97000D02*
D03*
X-100567Y82500D02*
D03*
Y78500D02*
D03*
X-95567Y82500D02*
D03*
Y78500D02*
D03*
X-96500Y93000D02*
D03*
Y97000D02*
D03*
D29*
X-24736Y30739D02*
D03*
X-24736Y23259D02*
D03*
X-14500Y23260D02*
D03*
X-14500Y27000D02*
D03*
X-14500Y30740D02*
D03*
D30*
X-56500Y61000D02*
D03*
D31*
X-67950Y68500D02*
D03*
Y63500D02*
D03*
Y58500D02*
D03*
Y53500D02*
D03*
X-45050D02*
D03*
Y58500D02*
D03*
Y63500D02*
D03*
Y68500D02*
D03*
D32*
X-12722Y92972D02*
D03*
Y52029D02*
D03*
D33*
X-23277Y58720D02*
D03*
Y60688D02*
D03*
Y62657D02*
D03*
Y64625D02*
D03*
Y66594D02*
D03*
Y68562D02*
D03*
Y70531D02*
D03*
Y72499D02*
D03*
Y74469D02*
D03*
Y76436D02*
D03*
Y78405D02*
D03*
Y80373D02*
D03*
Y82342D02*
D03*
Y84310D02*
D03*
Y86279D02*
D03*
D34*
X-73102Y84547D02*
D03*
Y90453D02*
D03*
X-90031Y84547D02*
D03*
Y90453D02*
D03*
D35*
X-80583Y81004D02*
D03*
X-82551D02*
D03*
X-84520D02*
D03*
X-86488D02*
D03*
X-88457D02*
D03*
X-78614D02*
D03*
X-76646D02*
D03*
X-74677D02*
D03*
X-80583Y93996D02*
D03*
X-82551D02*
D03*
X-84520D02*
D03*
X-86488D02*
D03*
X-88457D02*
D03*
X-78614D02*
D03*
X-76646D02*
D03*
X-74677D02*
D03*
D36*
X-81567Y87500D02*
D03*
D37*
X-101000Y67525D02*
D03*
Y52475D02*
D03*
D38*
X-86500Y54500D02*
D03*
X-90500D02*
D03*
X-86500Y62500D02*
D03*
X-90500D02*
D03*
X-86500Y58500D02*
D03*
X-90500D02*
D03*
X-86500Y66500D02*
D03*
X-90500D02*
D03*
X-75000Y67500D02*
D03*
X-79000D02*
D03*
X-36000Y49000D02*
D03*
X-40000D02*
D03*
Y45000D02*
D03*
X-36000D02*
D03*
X-51500Y74500D02*
D03*
X-55500D02*
D03*
X-28000Y49000D02*
D03*
X-32000D02*
D03*
Y45000D02*
D03*
X-28000D02*
D03*
X-40500Y20000D02*
D03*
X-44500D02*
D03*
X-63500Y101000D02*
D03*
X-67500D02*
D03*
X-63500Y105000D02*
D03*
X-67500D02*
D03*
X-55500D02*
D03*
X-59500D02*
D03*
X-55500Y101000D02*
D03*
X-59500D02*
D03*
X-101000Y102000D02*
D03*
X-97000D02*
D03*
X-84500Y104000D02*
D03*
X-88500D02*
D03*
Y100000D02*
D03*
X-84500D02*
D03*
D39*
X-80500Y60966D02*
D03*
Y55035D02*
D03*
D40*
X-51000Y41272D02*
D03*
Y23728D02*
D03*
D41*
X-90405Y40937D02*
D03*
X-86468D02*
D03*
X-82531D02*
D03*
X-78594D02*
D03*
D42*
X-69539Y33063D02*
D03*
X-99461D02*
D03*
D43*
X-17571Y28929D02*
X-17571D01*
X-15381Y29859D02*
X-14500Y30740D01*
X-16641Y29859D02*
X-15381D01*
X-17571Y28929D02*
X-16641Y29859D01*
X-18500Y28000D02*
X-17571Y28929D01*
X-18148Y23260D02*
X-14500D01*
X-18500Y23611D02*
X-18148Y23260D01*
X-18500Y23611D02*
Y28000D01*
X-49500Y76500D02*
X-47500D01*
X-51500Y74500D02*
X-49500Y76500D01*
X-95567Y78608D02*
X-95459Y78500D01*
X-93000D01*
X-78594Y40937D02*
X-78032Y41500D01*
X-78594Y40937D02*
X-78500Y40843D01*
X-95567Y78500D02*
Y78608D01*
X-45050Y68500D02*
Y72050D01*
X-51500Y74500D02*
X-47500D01*
X-45050Y72050D01*
X-71500Y72500D02*
X-51851D01*
X-51500Y72852D02*
Y74500D01*
X-51851Y72500D02*
X-51500Y72852D01*
X-74500Y75500D02*
X-71500Y72500D01*
X-67425Y78351D02*
Y79467D01*
X-67777Y78000D02*
X-67425Y78351D01*
X-76294Y78000D02*
X-67777D01*
X-76646Y78351D02*
X-76294Y78000D01*
X-76646Y78351D02*
Y81004D01*
X-61500Y76000D02*
Y81000D01*
X-84000Y75500D02*
X-79500D01*
X-77846Y77154D01*
Y78391D01*
X-78614Y79160D02*
Y81004D01*
Y79160D02*
X-77846Y78391D01*
X-79500Y75500D02*
X-74500D01*
X-66000Y80892D02*
Y81000D01*
X-67425Y79467D02*
X-66000Y80892D01*
X-89000Y75500D02*
Y79752D01*
X-88457Y80295D01*
Y81004D01*
X-95567Y75567D02*
X-93502Y73501D01*
X-93002D02*
X-93000Y73500D01*
X-93502Y73501D02*
X-93002D01*
X-95567Y75567D02*
Y78500D01*
X-86000Y73500D02*
X-84000Y75500D01*
X-93000Y73500D02*
X-86000D01*
M02*
