G04*
G04 #@! TF.GenerationSoftware,Altium Limited,Altium Designer,20.0.2 (26)*
G04*
G04 Layer_Color=8388736*
%FSLAX25Y25*%
%MOIN*%
G70*
G01*
G75*
%ADD65C,0.00200*%
G36*
X-41500Y47300D02*
X-40500D01*
Y47800D01*
Y47899D01*
X-40576Y48083D01*
X-40717Y48224D01*
X-40900Y48300D01*
X-41000D01*
D01*
X-41500D01*
Y47300D01*
D02*
G37*
G36*
X-34500Y46700D02*
X-35500D01*
Y46200D01*
Y46101D01*
X-35424Y45917D01*
X-35283Y45776D01*
X-35100Y45700D01*
X-35000D01*
D01*
X-34500D01*
Y46700D01*
D02*
G37*
G36*
X-33500Y47300D02*
X-32500D01*
Y47800D01*
Y47899D01*
X-32576Y48083D01*
X-32717Y48224D01*
X-32901Y48300D01*
X-33000D01*
D01*
X-33500D01*
Y47300D01*
D02*
G37*
G36*
X-26500Y46700D02*
X-27500D01*
Y46200D01*
Y46101D01*
X-27424Y45917D01*
X-27283Y45776D01*
X-27099Y45700D01*
X-27000D01*
D01*
X-26500D01*
Y46700D01*
D02*
G37*
G36*
X-36076Y49626D02*
X-36992D01*
X-36676Y49325D01*
X-36630Y49282D01*
X-36591Y49240D01*
X-36552Y49204D01*
X-36520Y49169D01*
X-36493Y49142D01*
X-36474Y49123D01*
X-36462Y49107D01*
X-36458Y49103D01*
X-36392Y49025D01*
X-36364Y48986D01*
X-36341Y48955D01*
X-36321Y48928D01*
X-36306Y48908D01*
X-36298Y48892D01*
X-36294Y48888D01*
X-36247Y48807D01*
X-36232Y48772D01*
X-36216Y48736D01*
X-36204Y48709D01*
X-36197Y48690D01*
X-36189Y48674D01*
Y48670D01*
X-36169Y48584D01*
X-36162Y48541D01*
X-36158Y48506D01*
X-36154Y48471D01*
Y48448D01*
Y48428D01*
Y48424D01*
X-36158Y48366D01*
X-36162Y48315D01*
X-36169Y48268D01*
X-36181Y48226D01*
X-36193Y48194D01*
X-36201Y48167D01*
X-36204Y48151D01*
X-36208Y48147D01*
X-36228Y48105D01*
X-36251Y48066D01*
X-36275Y48030D01*
X-36298Y48003D01*
X-36321Y47980D01*
X-36337Y47964D01*
X-36349Y47952D01*
X-36353Y47949D01*
X-36388Y47921D01*
X-36427Y47894D01*
X-36462Y47875D01*
X-36497Y47859D01*
X-36528Y47843D01*
X-36552Y47835D01*
X-36567Y47828D01*
X-36575D01*
X-36626Y47812D01*
X-36672Y47804D01*
X-36723Y47796D01*
X-36766Y47789D01*
X-36805D01*
X-36836Y47785D01*
X-36864D01*
X-36938Y47789D01*
X-37012Y47796D01*
X-37078Y47812D01*
X-37133Y47824D01*
X-37183Y47839D01*
X-37218Y47855D01*
X-37242Y47863D01*
X-37246Y47867D01*
X-37250D01*
X-37312Y47898D01*
X-37374Y47933D01*
X-37425Y47968D01*
X-37472Y47999D01*
X-37511Y48030D01*
X-37542Y48054D01*
X-37558Y48070D01*
X-37566Y48077D01*
X-37351Y48354D01*
X-37316Y48319D01*
X-37277Y48292D01*
X-37242Y48265D01*
X-37211Y48245D01*
X-37183Y48229D01*
X-37164Y48218D01*
X-37148Y48210D01*
X-37144Y48206D01*
X-37102Y48186D01*
X-37062Y48171D01*
X-37020Y48163D01*
X-36985Y48155D01*
X-36953Y48151D01*
X-36930Y48147D01*
X-36906D01*
X-36852Y48151D01*
X-36809Y48159D01*
X-36793Y48167D01*
X-36782Y48171D01*
X-36774Y48175D01*
X-36770D01*
X-36731Y48194D01*
X-36700Y48218D01*
X-36684Y48233D01*
X-36676Y48237D01*
Y48241D01*
X-36649Y48272D01*
X-36634Y48303D01*
X-36622Y48327D01*
X-36618Y48331D01*
Y48335D01*
X-36602Y48378D01*
X-36598Y48413D01*
X-36595Y48428D01*
Y48440D01*
Y48448D01*
Y48452D01*
X-36598Y48506D01*
X-36602Y48553D01*
X-36606Y48569D01*
Y48584D01*
X-36610Y48592D01*
Y48596D01*
X-36626Y48651D01*
X-36649Y48697D01*
X-36661Y48717D01*
X-36669Y48733D01*
X-36672Y48744D01*
X-36676Y48748D01*
X-36715Y48810D01*
X-36758Y48873D01*
X-36778Y48896D01*
X-36793Y48916D01*
X-36805Y48931D01*
X-36809Y48935D01*
X-36844Y48974D01*
X-36883Y49017D01*
X-36922Y49060D01*
X-36957Y49099D01*
X-36992Y49134D01*
X-37020Y49161D01*
X-37035Y49177D01*
X-37043Y49185D01*
X-37554Y49704D01*
Y50000D01*
X-36076D01*
Y49626D01*
D02*
G37*
G36*
X-38845Y49996D02*
X-38751Y49988D01*
X-38665Y49977D01*
X-38595Y49961D01*
X-38537Y49945D01*
X-38513Y49942D01*
X-38490Y49934D01*
X-38474Y49930D01*
X-38463Y49926D01*
X-38459Y49922D01*
X-38455D01*
X-38381Y49891D01*
X-38314Y49856D01*
X-38256Y49817D01*
X-38209Y49782D01*
X-38170Y49750D01*
X-38139Y49723D01*
X-38123Y49707D01*
X-38116Y49700D01*
X-38069Y49641D01*
X-38030Y49583D01*
X-37995Y49520D01*
X-37967Y49466D01*
X-37948Y49419D01*
X-37932Y49380D01*
X-37928Y49364D01*
X-37924Y49353D01*
X-37920Y49349D01*
Y49345D01*
X-37897Y49267D01*
X-37881Y49185D01*
X-37870Y49107D01*
X-37862Y49037D01*
X-37858Y48974D01*
X-37854Y48951D01*
Y48928D01*
Y48908D01*
Y48896D01*
Y48888D01*
Y48885D01*
X-37858Y48787D01*
X-37866Y48697D01*
X-37874Y48616D01*
X-37885Y48545D01*
X-37901Y48491D01*
X-37905Y48467D01*
X-37909Y48448D01*
X-37913Y48432D01*
X-37917Y48421D01*
X-37920Y48417D01*
Y48413D01*
X-37948Y48339D01*
X-37975Y48276D01*
X-38006Y48218D01*
X-38037Y48171D01*
X-38065Y48132D01*
X-38088Y48105D01*
X-38104Y48085D01*
X-38108Y48081D01*
X-38158Y48034D01*
X-38209Y47995D01*
X-38260Y47964D01*
X-38311Y47937D01*
X-38353Y47917D01*
X-38388Y47902D01*
X-38412Y47894D01*
X-38416Y47890D01*
X-38420D01*
X-38494Y47867D01*
X-38568Y47851D01*
X-38638Y47839D01*
X-38708Y47832D01*
X-38767Y47828D01*
X-38794Y47824D01*
X-39500D01*
Y50000D01*
X-38950D01*
X-38845Y49996D01*
D02*
G37*
G36*
X-36500Y44000D02*
X-37050D01*
X-37155Y44004D01*
X-37249Y44012D01*
X-37335Y44023D01*
X-37405Y44039D01*
X-37463Y44055D01*
X-37487Y44058D01*
X-37510Y44066D01*
X-37526Y44070D01*
X-37537Y44074D01*
X-37541Y44078D01*
X-37545D01*
X-37619Y44109D01*
X-37686Y44144D01*
X-37744Y44183D01*
X-37791Y44218D01*
X-37830Y44250D01*
X-37861Y44277D01*
X-37877Y44293D01*
X-37885Y44300D01*
X-37931Y44359D01*
X-37970Y44417D01*
X-38005Y44480D01*
X-38033Y44534D01*
X-38052Y44581D01*
X-38068Y44620D01*
X-38072Y44636D01*
X-38076Y44647D01*
X-38080Y44651D01*
Y44655D01*
X-38103Y44733D01*
X-38118Y44815D01*
X-38130Y44893D01*
X-38138Y44963D01*
X-38142Y45026D01*
X-38146Y45049D01*
Y45072D01*
Y45092D01*
Y45104D01*
Y45112D01*
Y45115D01*
X-38142Y45213D01*
X-38134Y45303D01*
X-38126Y45384D01*
X-38115Y45455D01*
X-38099Y45509D01*
X-38095Y45533D01*
X-38091Y45552D01*
X-38087Y45568D01*
X-38083Y45579D01*
X-38080Y45583D01*
Y45587D01*
X-38052Y45661D01*
X-38025Y45724D01*
X-37994Y45782D01*
X-37962Y45829D01*
X-37935Y45868D01*
X-37912Y45895D01*
X-37896Y45915D01*
X-37892Y45919D01*
X-37842Y45966D01*
X-37791Y46005D01*
X-37740Y46036D01*
X-37690Y46063D01*
X-37647Y46083D01*
X-37611Y46098D01*
X-37588Y46106D01*
X-37584Y46110D01*
X-37580D01*
X-37506Y46133D01*
X-37432Y46149D01*
X-37362Y46161D01*
X-37292Y46168D01*
X-37233Y46172D01*
X-37206Y46176D01*
X-36500D01*
Y44000D01*
D02*
G37*
G36*
X-38298Y44792D02*
Y44445D01*
X-39308D01*
Y44000D01*
X-39706D01*
Y44445D01*
X-40037D01*
Y44803D01*
X-39706D01*
Y46176D01*
X-39144D01*
X-38298Y44792D01*
D02*
G37*
G36*
X-28064Y49637D02*
X-28544D01*
Y47808D01*
X-28887D01*
X-29577Y48175D01*
X-29445Y48506D01*
X-28961Y48241D01*
Y49637D01*
X-29515D01*
Y50000D01*
X-28064D01*
Y49637D01*
D02*
G37*
G36*
X-30845Y49996D02*
X-30751Y49988D01*
X-30665Y49977D01*
X-30595Y49961D01*
X-30537Y49945D01*
X-30513Y49942D01*
X-30490Y49934D01*
X-30474Y49930D01*
X-30463Y49926D01*
X-30459Y49922D01*
X-30455D01*
X-30381Y49891D01*
X-30314Y49856D01*
X-30256Y49817D01*
X-30209Y49782D01*
X-30170Y49750D01*
X-30139Y49723D01*
X-30123Y49707D01*
X-30116Y49700D01*
X-30069Y49641D01*
X-30030Y49583D01*
X-29995Y49520D01*
X-29967Y49466D01*
X-29948Y49419D01*
X-29932Y49380D01*
X-29928Y49364D01*
X-29924Y49353D01*
X-29921Y49349D01*
Y49345D01*
X-29897Y49267D01*
X-29882Y49185D01*
X-29870Y49107D01*
X-29862Y49037D01*
X-29858Y48974D01*
X-29854Y48951D01*
Y48928D01*
Y48908D01*
Y48896D01*
Y48888D01*
Y48885D01*
X-29858Y48787D01*
X-29866Y48697D01*
X-29874Y48616D01*
X-29885Y48545D01*
X-29901Y48491D01*
X-29905Y48467D01*
X-29909Y48448D01*
X-29913Y48432D01*
X-29917Y48421D01*
X-29921Y48417D01*
Y48413D01*
X-29948Y48339D01*
X-29975Y48276D01*
X-30006Y48218D01*
X-30038Y48171D01*
X-30065Y48132D01*
X-30088Y48105D01*
X-30104Y48085D01*
X-30108Y48081D01*
X-30158Y48034D01*
X-30209Y47995D01*
X-30260Y47964D01*
X-30310Y47937D01*
X-30353Y47917D01*
X-30389Y47902D01*
X-30412Y47894D01*
X-30416Y47890D01*
X-30420D01*
X-30494Y47867D01*
X-30568Y47851D01*
X-30638Y47839D01*
X-30708Y47832D01*
X-30767Y47828D01*
X-30794Y47824D01*
X-31500D01*
Y50000D01*
X-30950D01*
X-30845Y49996D01*
D02*
G37*
G36*
X-30980Y46211D02*
X-30961D01*
X-30945Y46207D01*
X-30934D01*
X-30883Y46204D01*
X-30840Y46200D01*
X-30824Y46196D01*
X-30809D01*
X-30801Y46192D01*
X-30797D01*
X-30746Y46184D01*
X-30703Y46172D01*
X-30688Y46168D01*
X-30672Y46165D01*
X-30665Y46161D01*
X-30661D01*
X-30610Y46149D01*
X-30567Y46137D01*
X-30547Y46129D01*
X-30532Y46126D01*
X-30524Y46122D01*
X-30520D01*
Y45778D01*
X-30618Y45806D01*
X-30661Y45817D01*
X-30700Y45825D01*
X-30731Y45833D01*
X-30758Y45841D01*
X-30774Y45845D01*
X-30778D01*
X-30871Y45860D01*
X-30914Y45864D01*
X-30953Y45868D01*
X-30988Y45872D01*
X-31035D01*
X-31097Y45868D01*
X-31152Y45860D01*
X-31199Y45849D01*
X-31234Y45837D01*
X-31265Y45825D01*
X-31285Y45814D01*
X-31296Y45806D01*
X-31300Y45802D01*
X-31331Y45774D01*
X-31351Y45739D01*
X-31367Y45704D01*
X-31378Y45673D01*
X-31386Y45642D01*
X-31390Y45619D01*
Y45603D01*
Y45595D01*
X-31386Y45548D01*
X-31378Y45509D01*
X-31374Y45494D01*
X-31370Y45482D01*
X-31367Y45474D01*
Y45470D01*
X-31347Y45431D01*
X-31320Y45396D01*
X-31300Y45377D01*
X-31296Y45373D01*
X-31292Y45369D01*
X-31249Y45342D01*
X-31207Y45318D01*
X-31187Y45310D01*
X-31172Y45303D01*
X-31160Y45299D01*
X-31156D01*
X-31121Y45291D01*
X-31086Y45287D01*
X-31051Y45279D01*
X-31016D01*
X-30988Y45275D01*
X-30723D01*
Y44967D01*
X-31016D01*
X-31058Y44963D01*
X-31101Y44959D01*
X-31136Y44956D01*
X-31164Y44952D01*
X-31183Y44948D01*
X-31199Y44944D01*
X-31203D01*
X-31238Y44936D01*
X-31273Y44924D01*
X-31300Y44913D01*
X-31324Y44901D01*
X-31343Y44893D01*
X-31355Y44885D01*
X-31363Y44881D01*
X-31367Y44877D01*
X-31409Y44846D01*
X-31441Y44815D01*
X-31460Y44792D01*
X-31464Y44784D01*
Y44780D01*
X-31484Y44737D01*
X-31495Y44694D01*
X-31499Y44679D01*
Y44663D01*
Y44655D01*
Y44651D01*
X-31495Y44593D01*
X-31484Y44546D01*
X-31480Y44530D01*
X-31472Y44515D01*
X-31468Y44507D01*
Y44503D01*
X-31441Y44460D01*
X-31409Y44425D01*
X-31382Y44402D01*
X-31374Y44398D01*
X-31370Y44394D01*
X-31316Y44367D01*
X-31261Y44343D01*
X-31238Y44339D01*
X-31218Y44331D01*
X-31207Y44328D01*
X-31203D01*
X-31125Y44316D01*
X-31086Y44312D01*
X-31051D01*
X-31016Y44308D01*
X-30914D01*
X-30863Y44312D01*
X-30817D01*
X-30778Y44316D01*
X-30742D01*
X-30715Y44320D01*
X-30692D01*
X-30645Y44324D01*
X-30602Y44331D01*
X-30563Y44335D01*
X-30528Y44343D01*
X-30501Y44347D01*
X-30481Y44351D01*
X-30466Y44355D01*
X-30462D01*
Y44000D01*
X-30497Y43996D01*
X-30528Y43992D01*
X-30555Y43988D01*
X-30563D01*
X-30606Y43984D01*
X-30645Y43981D01*
X-30661Y43977D01*
X-30684D01*
X-30731Y43973D01*
X-30770D01*
X-30785Y43969D01*
X-30809D01*
X-30852Y43965D01*
X-30926D01*
X-31019Y43969D01*
X-31105Y43973D01*
X-31179Y43981D01*
X-31246Y43988D01*
X-31296Y43996D01*
X-31339Y44004D01*
X-31351Y44008D01*
X-31363Y44012D01*
X-31370D01*
X-31437Y44031D01*
X-31499Y44055D01*
X-31550Y44074D01*
X-31597Y44098D01*
X-31632Y44117D01*
X-31659Y44133D01*
X-31679Y44144D01*
X-31682Y44148D01*
X-31725Y44183D01*
X-31764Y44222D01*
X-31795Y44261D01*
X-31823Y44296D01*
X-31842Y44324D01*
X-31854Y44351D01*
X-31862Y44367D01*
X-31866Y44370D01*
X-31885Y44421D01*
X-31901Y44472D01*
X-31912Y44519D01*
X-31920Y44562D01*
X-31924Y44601D01*
X-31928Y44632D01*
Y44651D01*
Y44659D01*
X-31924Y44729D01*
X-31916Y44761D01*
X-31912Y44788D01*
X-31905Y44811D01*
X-31897Y44827D01*
X-31893Y44839D01*
Y44842D01*
X-31866Y44901D01*
X-31850Y44928D01*
X-31835Y44948D01*
X-31823Y44967D01*
X-31811Y44979D01*
X-31803Y44987D01*
X-31799Y44991D01*
X-31753Y45033D01*
X-31706Y45069D01*
X-31686Y45080D01*
X-31671Y45088D01*
X-31659Y45096D01*
X-31655D01*
X-31589Y45123D01*
X-31558Y45135D01*
X-31526Y45143D01*
X-31503Y45147D01*
X-31484Y45151D01*
X-31468Y45154D01*
X-31464D01*
X-31523Y45182D01*
X-31573Y45213D01*
X-31616Y45244D01*
X-31651Y45271D01*
X-31682Y45299D01*
X-31702Y45322D01*
X-31714Y45338D01*
X-31718Y45342D01*
X-31749Y45392D01*
X-31772Y45447D01*
X-31788Y45498D01*
X-31799Y45552D01*
X-31807Y45595D01*
X-31811Y45634D01*
Y45658D01*
Y45661D01*
Y45665D01*
Y45712D01*
X-31803Y45755D01*
X-31795Y45790D01*
X-31788Y45825D01*
X-31780Y45853D01*
X-31772Y45872D01*
X-31768Y45888D01*
X-31764Y45891D01*
X-31745Y45927D01*
X-31721Y45962D01*
X-31698Y45989D01*
X-31679Y46016D01*
X-31655Y46036D01*
X-31640Y46051D01*
X-31628Y46059D01*
X-31624Y46063D01*
X-31589Y46090D01*
X-31550Y46114D01*
X-31511Y46133D01*
X-31476Y46149D01*
X-31441Y46161D01*
X-31417Y46168D01*
X-31402Y46176D01*
X-31394D01*
X-31343Y46188D01*
X-31288Y46200D01*
X-31238Y46207D01*
X-31187Y46211D01*
X-31144Y46215D01*
X-31027D01*
X-30980Y46211D01*
D02*
G37*
G36*
X-28500Y44000D02*
X-29050D01*
X-29155Y44004D01*
X-29249Y44012D01*
X-29335Y44023D01*
X-29405Y44039D01*
X-29463Y44055D01*
X-29487Y44058D01*
X-29510Y44066D01*
X-29526Y44070D01*
X-29537Y44074D01*
X-29541Y44078D01*
X-29545D01*
X-29619Y44109D01*
X-29686Y44144D01*
X-29744Y44183D01*
X-29791Y44218D01*
X-29830Y44250D01*
X-29861Y44277D01*
X-29877Y44293D01*
X-29884Y44300D01*
X-29931Y44359D01*
X-29970Y44417D01*
X-30005Y44480D01*
X-30033Y44534D01*
X-30052Y44581D01*
X-30068Y44620D01*
X-30072Y44636D01*
X-30076Y44647D01*
X-30079Y44651D01*
Y44655D01*
X-30103Y44733D01*
X-30119Y44815D01*
X-30130Y44893D01*
X-30138Y44963D01*
X-30142Y45026D01*
X-30146Y45049D01*
Y45072D01*
Y45092D01*
Y45104D01*
Y45112D01*
Y45115D01*
X-30142Y45213D01*
X-30134Y45303D01*
X-30126Y45384D01*
X-30115Y45455D01*
X-30099Y45509D01*
X-30095Y45533D01*
X-30091Y45552D01*
X-30087Y45568D01*
X-30083Y45579D01*
X-30079Y45583D01*
Y45587D01*
X-30052Y45661D01*
X-30025Y45724D01*
X-29994Y45782D01*
X-29963Y45829D01*
X-29935Y45868D01*
X-29912Y45895D01*
X-29896Y45915D01*
X-29892Y45919D01*
X-29842Y45966D01*
X-29791Y46005D01*
X-29740Y46036D01*
X-29689Y46063D01*
X-29647Y46083D01*
X-29612Y46098D01*
X-29588Y46106D01*
X-29584Y46110D01*
X-29580D01*
X-29506Y46133D01*
X-29432Y46149D01*
X-29362Y46161D01*
X-29292Y46168D01*
X-29233Y46172D01*
X-29206Y46176D01*
X-28500D01*
Y44000D01*
D02*
G37*
%LPC*%
G36*
X-38884Y49657D02*
X-39090D01*
Y48167D01*
X-38884D01*
X-38825Y48171D01*
X-38771Y48175D01*
X-38720Y48183D01*
X-38681Y48190D01*
X-38646Y48202D01*
X-38622Y48210D01*
X-38607Y48214D01*
X-38603Y48218D01*
X-38564Y48237D01*
X-38529Y48261D01*
X-38498Y48288D01*
X-38470Y48311D01*
X-38451Y48331D01*
X-38435Y48350D01*
X-38427Y48362D01*
X-38424Y48366D01*
X-38400Y48401D01*
X-38377Y48440D01*
X-38361Y48479D01*
X-38350Y48518D01*
X-38338Y48549D01*
X-38330Y48577D01*
X-38326Y48592D01*
Y48600D01*
X-38307Y48705D01*
X-38303Y48760D01*
X-38299Y48807D01*
X-38295Y48849D01*
Y48881D01*
Y48904D01*
Y48908D01*
Y48912D01*
Y48982D01*
X-38303Y49048D01*
X-38311Y49107D01*
X-38318Y49161D01*
X-38330Y49212D01*
X-38346Y49259D01*
X-38361Y49302D01*
X-38373Y49341D01*
X-38388Y49372D01*
X-38404Y49399D01*
X-38416Y49423D01*
X-38431Y49442D01*
X-38439Y49458D01*
X-38447Y49470D01*
X-38455Y49474D01*
Y49477D01*
X-38486Y49509D01*
X-38517Y49536D01*
X-38591Y49583D01*
X-38669Y49614D01*
X-38739Y49633D01*
X-38806Y49649D01*
X-38837Y49653D01*
X-38860D01*
X-38884Y49657D01*
D02*
G37*
G36*
X-36909Y45833D02*
X-37116D01*
X-37175Y45829D01*
X-37229Y45825D01*
X-37280Y45817D01*
X-37319Y45810D01*
X-37354Y45798D01*
X-37378Y45790D01*
X-37393Y45786D01*
X-37397Y45782D01*
X-37436Y45763D01*
X-37471Y45739D01*
X-37502Y45712D01*
X-37530Y45689D01*
X-37549Y45669D01*
X-37565Y45650D01*
X-37573Y45638D01*
X-37576Y45634D01*
X-37600Y45599D01*
X-37623Y45560D01*
X-37639Y45521D01*
X-37650Y45482D01*
X-37662Y45451D01*
X-37670Y45423D01*
X-37674Y45408D01*
Y45400D01*
X-37693Y45295D01*
X-37697Y45240D01*
X-37701Y45193D01*
X-37705Y45151D01*
Y45119D01*
Y45096D01*
Y45092D01*
Y45088D01*
Y45018D01*
X-37697Y44952D01*
X-37690Y44893D01*
X-37682Y44839D01*
X-37670Y44788D01*
X-37654Y44741D01*
X-37639Y44698D01*
X-37627Y44659D01*
X-37611Y44628D01*
X-37596Y44601D01*
X-37584Y44577D01*
X-37569Y44558D01*
X-37561Y44542D01*
X-37553Y44530D01*
X-37545Y44526D01*
Y44523D01*
X-37514Y44491D01*
X-37483Y44464D01*
X-37409Y44417D01*
X-37331Y44386D01*
X-37260Y44367D01*
X-37194Y44351D01*
X-37163Y44347D01*
X-37140D01*
X-37116Y44343D01*
X-36909D01*
Y45833D01*
D02*
G37*
G36*
X-39316Y45782D02*
Y44803D01*
X-38696D01*
X-39316Y45782D01*
D02*
G37*
G36*
X-30884Y49657D02*
X-31091D01*
Y48167D01*
X-30884D01*
X-30825Y48171D01*
X-30771Y48175D01*
X-30720Y48183D01*
X-30681Y48190D01*
X-30646Y48202D01*
X-30623Y48210D01*
X-30607Y48214D01*
X-30603Y48218D01*
X-30564Y48237D01*
X-30529Y48261D01*
X-30498Y48288D01*
X-30470Y48311D01*
X-30451Y48331D01*
X-30435Y48350D01*
X-30428Y48362D01*
X-30424Y48366D01*
X-30400Y48401D01*
X-30377Y48440D01*
X-30361Y48479D01*
X-30349Y48518D01*
X-30338Y48549D01*
X-30330Y48577D01*
X-30326Y48592D01*
Y48600D01*
X-30307Y48705D01*
X-30303Y48760D01*
X-30299Y48807D01*
X-30295Y48849D01*
Y48881D01*
Y48904D01*
Y48908D01*
Y48912D01*
Y48982D01*
X-30303Y49048D01*
X-30310Y49107D01*
X-30318Y49161D01*
X-30330Y49212D01*
X-30346Y49259D01*
X-30361Y49302D01*
X-30373Y49341D01*
X-30389Y49372D01*
X-30404Y49399D01*
X-30416Y49423D01*
X-30431Y49442D01*
X-30439Y49458D01*
X-30447Y49470D01*
X-30455Y49474D01*
Y49477D01*
X-30486Y49509D01*
X-30517Y49536D01*
X-30591Y49583D01*
X-30669Y49614D01*
X-30740Y49633D01*
X-30806Y49649D01*
X-30837Y49653D01*
X-30860D01*
X-30884Y49657D01*
D02*
G37*
G36*
X-28910Y45833D02*
X-29116D01*
X-29175Y45829D01*
X-29229Y45825D01*
X-29280Y45817D01*
X-29319Y45810D01*
X-29354Y45798D01*
X-29377Y45790D01*
X-29393Y45786D01*
X-29397Y45782D01*
X-29436Y45763D01*
X-29471Y45739D01*
X-29502Y45712D01*
X-29530Y45689D01*
X-29549Y45669D01*
X-29565Y45650D01*
X-29572Y45638D01*
X-29576Y45634D01*
X-29600Y45599D01*
X-29623Y45560D01*
X-29639Y45521D01*
X-29651Y45482D01*
X-29662Y45451D01*
X-29670Y45423D01*
X-29674Y45408D01*
Y45400D01*
X-29693Y45295D01*
X-29697Y45240D01*
X-29701Y45193D01*
X-29705Y45151D01*
Y45119D01*
Y45096D01*
Y45092D01*
Y45088D01*
Y45018D01*
X-29697Y44952D01*
X-29689Y44893D01*
X-29682Y44839D01*
X-29670Y44788D01*
X-29654Y44741D01*
X-29639Y44698D01*
X-29627Y44659D01*
X-29612Y44628D01*
X-29596Y44601D01*
X-29584Y44577D01*
X-29569Y44558D01*
X-29561Y44542D01*
X-29553Y44530D01*
X-29545Y44526D01*
Y44523D01*
X-29514Y44491D01*
X-29483Y44464D01*
X-29409Y44417D01*
X-29331Y44386D01*
X-29261Y44367D01*
X-29194Y44351D01*
X-29163Y44347D01*
X-29140D01*
X-29116Y44343D01*
X-28910D01*
Y45833D01*
D02*
G37*
%LPD*%
D65*
X-28300Y24500D02*
Y31500D01*
X-31700D02*
X-28300D01*
X-31700Y24500D02*
X-28300D01*
X-31700D02*
Y31500D01*
X-6300Y25500D02*
Y32500D01*
X-9700D02*
X-6300D01*
X-9700Y25500D02*
X-6300D01*
X-9700D02*
Y32500D01*
X-92000Y52800D02*
X-85000D01*
Y56200D01*
X-92000Y52800D02*
Y56200D01*
X-85000D01*
X-92000Y60800D02*
X-85000D01*
Y64200D01*
X-92000Y60800D02*
Y64200D01*
X-85000D01*
X-92000Y56800D02*
X-85000D01*
Y60200D01*
X-92000Y56800D02*
Y60200D01*
X-85000D01*
X-92000Y64800D02*
X-85000D01*
Y68200D01*
X-92000Y64800D02*
Y68200D01*
X-85000D01*
X-80500Y65800D02*
X-73500D01*
Y69200D01*
X-80500Y65800D02*
Y69200D01*
X-73500D01*
X-76700Y52500D02*
Y59500D01*
Y52500D02*
X-73300D01*
X-76700Y59500D02*
X-73300D01*
Y52500D02*
Y59500D01*
X-41500Y50700D02*
X-34500D01*
X-41500Y47300D02*
Y50700D01*
X-34500Y47300D02*
Y50700D01*
X-41500Y47300D02*
X-34500D01*
X-41500Y43300D02*
X-34500D01*
Y46700D01*
X-41500Y43300D02*
Y46700D01*
X-34500D01*
X-57000Y72800D02*
X-50000D01*
Y76200D01*
X-57000Y72800D02*
Y76200D01*
X-50000D01*
X-33500Y50700D02*
X-26500D01*
X-33500Y47300D02*
Y50700D01*
X-26500Y47300D02*
Y50700D01*
X-33500Y47300D02*
X-26500D01*
X-33500Y43300D02*
X-26500D01*
Y46700D01*
X-33500Y43300D02*
Y46700D01*
X-26500D01*
X-46000Y18300D02*
X-39000D01*
Y21700D01*
X-46000Y18300D02*
Y21700D01*
X-39000D01*
X-76200Y70000D02*
Y77000D01*
Y70000D02*
X-72800D01*
X-76200Y77000D02*
X-72800D01*
Y70000D02*
Y77000D01*
X-69000Y99300D02*
X-62000D01*
Y102700D01*
X-69000Y99300D02*
Y102700D01*
X-62000D01*
X-70800Y98500D02*
Y105500D01*
X-74200D02*
X-70800D01*
X-74200Y98500D02*
X-70800D01*
X-74200D02*
Y105500D01*
X-69000Y103300D02*
X-62000D01*
Y106700D01*
X-69000Y103300D02*
Y106700D01*
X-62000D01*
X-78200Y98500D02*
Y105500D01*
Y98500D02*
X-74800D01*
X-78200Y105500D02*
X-74800D01*
Y98500D02*
Y105500D01*
X-61000Y103300D02*
X-54000D01*
Y106700D01*
X-61000Y103300D02*
Y106700D01*
X-54000D01*
X-53200Y99500D02*
Y106500D01*
Y99500D02*
X-49800D01*
X-53200Y106500D02*
X-49800D01*
Y99500D02*
Y106500D01*
X-61000Y99300D02*
X-54000D01*
Y102700D01*
X-61000Y99300D02*
Y102700D01*
X-54000D01*
X-90700Y70000D02*
Y77000D01*
Y70000D02*
X-87300D01*
X-90700Y77000D02*
X-87300D01*
Y70000D02*
Y77000D01*
X-102500Y100300D02*
X-95500D01*
Y103700D01*
X-102500Y100300D02*
Y103700D01*
X-95500D01*
X-78800Y98500D02*
Y105500D01*
X-82200D02*
X-78800D01*
X-82200Y98500D02*
X-78800D01*
X-82200D02*
Y105500D01*
X-90000Y105700D02*
X-83000D01*
X-90000Y102300D02*
Y105700D01*
X-83000Y102300D02*
Y105700D01*
X-90000Y102300D02*
X-83000D01*
X-90800Y98500D02*
Y105500D01*
X-94200D02*
X-90800D01*
X-94200Y98500D02*
X-90800D01*
X-94200D02*
Y105500D01*
X-90000Y98300D02*
X-83000D01*
Y101700D01*
X-90000Y98300D02*
Y101700D01*
X-83000D01*
X-81200Y70000D02*
Y77000D01*
Y70000D02*
X-77800D01*
X-81200Y77000D02*
X-77800D01*
Y70000D02*
Y77000D01*
X-85700Y70000D02*
Y77000D01*
Y70000D02*
X-82300D01*
X-85700Y77000D02*
X-82300D01*
Y70000D02*
Y77000D01*
X-51700Y85500D02*
Y92500D01*
Y85500D02*
X-48300D01*
X-51700Y92500D02*
X-48300D01*
Y85500D02*
Y92500D01*
X-47200Y85500D02*
Y92500D01*
Y85500D02*
X-43800D01*
X-47200Y92500D02*
X-43800D01*
Y85500D02*
Y92500D01*
X-64600Y91500D02*
Y98500D01*
X-68000D02*
X-64600D01*
X-68000Y91500D02*
X-64600D01*
X-68000D02*
Y98500D01*
X-59800Y91500D02*
Y98500D01*
X-63200D02*
X-59800D01*
X-63200Y91500D02*
X-59800D01*
X-63200D02*
Y98500D01*
X-55000Y91500D02*
Y98500D01*
X-58400D02*
X-55000D01*
X-58400Y91500D02*
X-55000D01*
X-58400D02*
Y98500D01*
X-58700Y79500D02*
Y86500D01*
Y79500D02*
X-55300D01*
X-58700Y86500D02*
X-55300D01*
Y79500D02*
Y86500D01*
X-50300Y77500D02*
Y84500D01*
X-53700D02*
X-50300D01*
X-53700Y77500D02*
X-50300D01*
X-53700D02*
Y84500D01*
X-63200Y79500D02*
Y86500D01*
Y79500D02*
X-59800D01*
X-63200Y86500D02*
X-59800D01*
Y79500D02*
Y86500D01*
X-67700Y79500D02*
Y86500D01*
Y79500D02*
X-64300D01*
X-67700Y86500D02*
X-64300D01*
Y79500D02*
Y86500D01*
X-45300Y77500D02*
Y84500D01*
X-48700D02*
X-45300D01*
X-48700Y77500D02*
X-45300D01*
X-48700D02*
Y84500D01*
X-40800Y77500D02*
Y84500D01*
X-44200D02*
X-40800D01*
X-44200Y77500D02*
X-40800D01*
X-44200D02*
Y84500D01*
X-99300Y91500D02*
Y98500D01*
X-102700D02*
X-99300D01*
X-102700Y91500D02*
X-99300D01*
X-102700D02*
Y98500D01*
X-102267Y77000D02*
Y84000D01*
Y77000D02*
X-98867D01*
X-102267Y84000D02*
X-98867D01*
Y77000D02*
Y84000D01*
X-97267Y77000D02*
Y84000D01*
Y77000D02*
X-93867D01*
X-97267Y84000D02*
X-93867D01*
Y77000D02*
Y84000D01*
X-94800Y91500D02*
Y98500D01*
X-98200D02*
X-94800D01*
X-98200Y91500D02*
X-94800D01*
X-98200D02*
Y98500D01*
M02*
