G04*
G04 #@! TF.GenerationSoftware,Altium Limited,Altium Designer,20.0.2 (26)*
G04*
G04 Layer_Color=16711935*
%FSLAX25Y25*%
%MOIN*%
G70*
G01*
G75*
%ADD13C,0.07887*%
%ADD14R,0.07887X0.07887*%
%ADD15C,0.10642*%
G04:AMPARAMS|DCode=44|XSize=28mil|YSize=28mil|CornerRadius=9mil|HoleSize=0mil|Usage=FLASHONLY|Rotation=180.000|XOffset=0mil|YOffset=0mil|HoleType=Round|Shape=RoundedRectangle|*
%AMROUNDEDRECTD44*
21,1,0.02800,0.01000,0,0,180.0*
21,1,0.01000,0.02800,0,0,180.0*
1,1,0.01800,-0.00500,0.00500*
1,1,0.01800,0.00500,0.00500*
1,1,0.01800,0.00500,-0.00500*
1,1,0.01800,-0.00500,-0.00500*
%
%ADD44ROUNDEDRECTD44*%
%ADD45R,0.04737X0.03162*%
%ADD46R,0.10642X0.14579*%
%ADD47R,0.05524X0.03162*%
%ADD48R,0.07099X0.08674*%
%ADD49R,0.06706X0.01981*%
G04:AMPARAMS|DCode=50|XSize=17.45mil|YSize=31.62mil|CornerRadius=5.98mil|HoleSize=0mil|Usage=FLASHONLY|Rotation=90.000|XOffset=0mil|YOffset=0mil|HoleType=Round|Shape=RoundedRectangle|*
%AMROUNDEDRECTD50*
21,1,0.01745,0.01965,0,0,90.0*
21,1,0.00548,0.03162,0,0,90.0*
1,1,0.01197,0.00983,0.00274*
1,1,0.01197,0.00983,-0.00274*
1,1,0.01197,-0.00983,-0.00274*
1,1,0.01197,-0.00983,0.00274*
%
%ADD50ROUNDEDRECTD50*%
G04:AMPARAMS|DCode=51|XSize=31.62mil|YSize=17.45mil|CornerRadius=5.98mil|HoleSize=0mil|Usage=FLASHONLY|Rotation=90.000|XOffset=0mil|YOffset=0mil|HoleType=Round|Shape=RoundedRectangle|*
%AMROUNDEDRECTD51*
21,1,0.03162,0.00548,0,0,90.0*
21,1,0.01965,0.01745,0,0,90.0*
1,1,0.01197,0.00274,0.00983*
1,1,0.01197,0.00274,-0.00983*
1,1,0.01197,-0.00274,-0.00983*
1,1,0.01197,-0.00274,0.00983*
%
%ADD51ROUNDEDRECTD51*%
G04:AMPARAMS|DCode=52|XSize=88.71mil|YSize=128.08mil|CornerRadius=6.02mil|HoleSize=0mil|Usage=FLASHONLY|Rotation=90.000|XOffset=0mil|YOffset=0mil|HoleType=Round|Shape=RoundedRectangle|*
%AMROUNDEDRECTD52*
21,1,0.08871,0.11604,0,0,90.0*
21,1,0.07667,0.12808,0,0,90.0*
1,1,0.01204,0.05802,0.03834*
1,1,0.01204,0.05802,-0.03834*
1,1,0.01204,-0.05802,-0.03834*
1,1,0.01204,-0.05802,0.03834*
%
%ADD52ROUNDEDRECTD52*%
%ADD53R,0.10154X0.07129*%
G04:AMPARAMS|DCode=54|XSize=28mil|YSize=28mil|CornerRadius=9mil|HoleSize=0mil|Usage=FLASHONLY|Rotation=270.000|XOffset=0mil|YOffset=0mil|HoleType=Round|Shape=RoundedRectangle|*
%AMROUNDEDRECTD54*
21,1,0.02800,0.01000,0,0,270.0*
21,1,0.01000,0.02800,0,0,270.0*
1,1,0.01800,-0.00500,-0.00500*
1,1,0.01800,-0.00500,0.00500*
1,1,0.01800,0.00500,0.00500*
1,1,0.01800,0.00500,-0.00500*
%
%ADD54ROUNDEDRECTD54*%
%ADD55R,0.04202X0.03975*%
%ADD56R,0.08359X0.07587*%
%ADD57R,0.03162X0.09461*%
%ADD58R,0.11036X0.11036*%
G36*
X-71521Y88815D02*
X-71523Y88846D01*
X-71527Y88876D01*
X-71533Y88907D01*
X-71540Y88937D01*
X-71549Y88967D01*
X-71559Y88996D01*
X-71571Y89025D01*
X-71584Y89053D01*
X-71599Y89081D01*
X-71616Y89107D01*
X-71633Y89133D01*
X-71652Y89158D01*
X-71672Y89181D01*
X-71694Y89204D01*
X-71716Y89225D01*
X-71740Y89245D01*
X-71765Y89264D01*
X-71790Y89282D01*
X-71817Y89298D01*
X-71844Y89313D01*
X-71872Y89327D01*
X-71901Y89338D01*
X-71930Y89349D01*
X-71960Y89358D01*
X-71991Y89365D01*
X-72021Y89371D01*
X-72052Y89375D01*
X-72083Y89377D01*
X-72114Y89378D01*
X-75161D01*
Y91339D01*
X-75162Y91370D01*
X-75165Y91401D01*
X-75169Y91432D01*
X-75174Y91463D01*
X-75182Y91493D01*
X-75191Y91523D01*
X-75201Y91553D01*
X-75213Y91582D01*
X-75227Y91610D01*
X-75242Y91638D01*
X-75258Y91664D01*
X-75276Y91690D01*
X-75295Y91715D01*
X-75315Y91739D01*
X-75337Y91762D01*
X-75359Y91783D01*
X-75383Y91804D01*
X-75408Y91823D01*
X-75434Y91840D01*
X-75461Y91857D01*
X-75488Y91872D01*
X-75516Y91885D01*
X-75545Y91897D01*
X-75575Y91908D01*
X-75605Y91917D01*
X-75635Y91924D01*
X-75666Y91930D01*
X-75697Y91934D01*
X-75728Y91936D01*
X-75760Y91937D01*
X-87378D01*
X-87409Y91936D01*
X-87440Y91934D01*
X-87470Y91930D01*
X-87501Y91924D01*
X-87531Y91917D01*
X-87560Y91908D01*
X-87590Y91898D01*
X-87618Y91886D01*
X-87646Y91873D01*
X-87673Y91858D01*
X-87700Y91842D01*
X-87725Y91824D01*
X-87750Y91805D01*
X-87773Y91785D01*
X-87796Y91764D01*
X-87817Y91742D01*
X-87837Y91718D01*
X-87856Y91694D01*
X-87873Y91668D01*
X-87889Y91642D01*
X-87904Y91615D01*
X-87917Y91587D01*
X-87929Y91558D01*
X-87940Y91529D01*
X-87948Y91499D01*
X-87956Y91469D01*
X-87961Y91439D01*
X-87965Y91408D01*
X-87968Y91377D01*
X-87968Y91347D01*
Y89382D01*
X-87968Y89382D01*
X-87968Y89381D01*
X-87969Y89381D01*
X-87969Y89381D01*
X-87969Y89381D01*
X-87969Y89381D01*
X-87969Y89381D01*
X-87969Y89380D01*
X-87969Y89380D01*
X-87969Y89380D01*
X-87969Y89380D01*
X-87969Y89380D01*
X-87969Y89379D01*
X-87969Y89379D01*
X-87970Y89379D01*
X-87970Y89379D01*
X-87970Y89379D01*
X-87970Y89379D01*
X-87970Y89379D01*
X-87971Y89378D01*
X-87971Y89378D01*
X-87971Y89378D01*
X-87971Y89378D01*
X-87971Y89378D01*
X-87971Y89378D01*
X-87972Y89378D01*
X-87972Y89378D01*
X-87972Y89378D01*
X-87972Y89378D01*
X-87972Y89378D01*
X-91020D01*
X-91051Y89377D01*
X-91081Y89375D01*
X-91112Y89371D01*
X-91142Y89365D01*
X-91172Y89358D01*
X-91202Y89349D01*
X-91231Y89339D01*
X-91260Y89327D01*
X-91288Y89314D01*
X-91315Y89299D01*
X-91341Y89283D01*
X-91367Y89265D01*
X-91391Y89246D01*
X-91415Y89226D01*
X-91437Y89205D01*
X-91459Y89183D01*
X-91479Y89159D01*
X-91497Y89135D01*
X-91515Y89109D01*
X-91531Y89083D01*
X-91546Y89056D01*
X-91559Y89028D01*
X-91571Y88999D01*
X-91581Y88970D01*
X-91590Y88940D01*
X-91597Y88910D01*
X-91603Y88880D01*
X-91607Y88849D01*
X-91609Y88818D01*
X-91610Y88787D01*
Y88374D01*
X-91609Y88343D01*
X-91607Y88313D01*
X-91603Y88282D01*
X-91597Y88252D01*
X-91590Y88222D01*
X-91581Y88193D01*
X-91571Y88164D01*
X-91559Y88135D01*
X-91546Y88108D01*
X-91532Y88081D01*
X-91516Y88055D01*
X-91498Y88029D01*
X-91479Y88005D01*
X-91460Y87981D01*
X-91438Y87959D01*
X-91416Y87938D01*
X-91393Y87918D01*
X-91368Y87899D01*
X-91343Y87882D01*
X-91317Y87866D01*
X-91290Y87851D01*
X-91262Y87838D01*
X-91234Y87826D01*
X-91205Y87816D01*
X-91176Y87807D01*
X-91146Y87800D01*
X-91115Y87795D01*
X-91085Y87791D01*
X-91054Y87788D01*
X-91024Y87787D01*
X-89547D01*
Y87217D01*
X-89547Y87216D01*
X-89547Y87216D01*
X-89547Y87216D01*
X-89547Y87216D01*
X-89547Y87216D01*
X-89547Y87215D01*
X-89547Y87215D01*
X-89548Y87215D01*
X-89548Y87215D01*
X-89548Y87215D01*
X-89548Y87214D01*
X-89548Y87214D01*
X-89548Y87214D01*
X-89548Y87214D01*
X-89548Y87214D01*
X-89549Y87214D01*
X-89549Y87213D01*
X-89549Y87213D01*
X-89549Y87213D01*
X-89549Y87213D01*
X-89549Y87213D01*
X-89550Y87213D01*
X-89550Y87213D01*
X-89550Y87213D01*
X-89550Y87213D01*
X-89550Y87213D01*
X-89551Y87213D01*
X-89551Y87213D01*
X-89551Y87213D01*
X-89551D01*
X-91020D01*
X-91051Y87212D01*
X-91081Y87209D01*
X-91112Y87205D01*
X-91142Y87200D01*
X-91172Y87192D01*
X-91202Y87184D01*
X-91231Y87173D01*
X-91260Y87161D01*
X-91288Y87148D01*
X-91315Y87134D01*
X-91341Y87117D01*
X-91367Y87100D01*
X-91391Y87081D01*
X-91415Y87061D01*
X-91437Y87040D01*
X-91459Y87017D01*
X-91479Y86994D01*
X-91497Y86969D01*
X-91515Y86944D01*
X-91531Y86917D01*
X-91546Y86890D01*
X-91559Y86862D01*
X-91571Y86834D01*
X-91581Y86804D01*
X-91590Y86775D01*
X-91597Y86745D01*
X-91603Y86714D01*
X-91607Y86684D01*
X-91609Y86653D01*
X-91610Y86622D01*
Y86205D01*
X-91609Y86174D01*
X-91607Y86144D01*
X-91603Y86114D01*
X-91597Y86084D01*
X-91590Y86054D01*
X-91582Y86025D01*
X-91571Y85996D01*
X-91560Y85968D01*
X-91547Y85940D01*
X-91532Y85913D01*
X-91516Y85887D01*
X-91499Y85862D01*
X-91480Y85838D01*
X-91461Y85815D01*
X-91440Y85793D01*
X-91417Y85772D01*
X-91394Y85752D01*
X-91370Y85733D01*
X-91345Y85716D01*
X-91319Y85700D01*
X-91292Y85686D01*
X-91265Y85672D01*
X-91236Y85661D01*
X-91208Y85651D01*
X-91178Y85642D01*
X-91149Y85635D01*
X-91119Y85629D01*
X-91088Y85625D01*
X-91058Y85623D01*
X-91028Y85622D01*
X-87972D01*
Y83661D01*
X-87972Y83630D01*
X-87969Y83599D01*
X-87965Y83568D01*
X-87959Y83537D01*
X-87952Y83507D01*
X-87943Y83477D01*
X-87933Y83447D01*
X-87921Y83418D01*
X-87907Y83390D01*
X-87892Y83362D01*
X-87876Y83336D01*
X-87858Y83310D01*
X-87839Y83285D01*
X-87819Y83261D01*
X-87797Y83238D01*
X-87774Y83217D01*
X-87751Y83196D01*
X-87726Y83177D01*
X-87700Y83160D01*
X-87673Y83143D01*
X-87646Y83128D01*
X-87617Y83115D01*
X-87589Y83103D01*
X-87559Y83092D01*
X-87529Y83083D01*
X-87498Y83076D01*
X-87468Y83070D01*
X-87437Y83066D01*
X-87405Y83064D01*
X-87374Y83063D01*
X-75764D01*
X-75732Y83064D01*
X-75701Y83066D01*
X-75670Y83070D01*
X-75639Y83076D01*
X-75609Y83083D01*
X-75579Y83092D01*
X-75549Y83103D01*
X-75520Y83115D01*
X-75492Y83128D01*
X-75465Y83143D01*
X-75438Y83160D01*
X-75412Y83177D01*
X-75387Y83196D01*
X-75363Y83217D01*
X-75341Y83238D01*
X-75319Y83261D01*
X-75299Y83285D01*
X-75280Y83310D01*
X-75262Y83336D01*
X-75245Y83362D01*
X-75231Y83390D01*
X-75217Y83418D01*
X-75205Y83447D01*
X-75195Y83477D01*
X-75186Y83507D01*
X-75178Y83537D01*
X-75173Y83568D01*
X-75169Y83599D01*
X-75166Y83630D01*
X-75165Y83661D01*
Y85618D01*
X-75165Y85618D01*
X-75165Y85619D01*
X-75165Y85619D01*
X-75165Y85619D01*
X-75165Y85619D01*
X-75165Y85619D01*
X-75165Y85619D01*
X-75165Y85620D01*
X-75165Y85620D01*
X-75165Y85620D01*
X-75165Y85620D01*
X-75165Y85620D01*
X-75165Y85621D01*
X-75164Y85621D01*
X-75164Y85621D01*
X-75164Y85621D01*
X-75164Y85621D01*
X-75164Y85621D01*
X-75164Y85621D01*
X-75163Y85622D01*
X-75163Y85622D01*
X-75163Y85622D01*
X-75163Y85622D01*
X-75163Y85622D01*
X-75162Y85622D01*
X-75162Y85622D01*
X-75162Y85622D01*
X-75162Y85622D01*
X-75162Y85622D01*
X-75161Y85622D01*
X-72118D01*
X-72087Y85623D01*
X-72056Y85625D01*
X-72025Y85629D01*
X-71994Y85635D01*
X-71963Y85642D01*
X-71933Y85651D01*
X-71904Y85662D01*
X-71875Y85674D01*
X-71846Y85687D01*
X-71819Y85702D01*
X-71792Y85719D01*
X-71766Y85736D01*
X-71741Y85755D01*
X-71718Y85776D01*
X-71695Y85797D01*
X-71673Y85820D01*
X-71653Y85844D01*
X-71634Y85869D01*
X-71616Y85895D01*
X-71600Y85921D01*
X-71585Y85949D01*
X-71571Y85977D01*
X-71559Y86006D01*
X-71549Y86036D01*
X-71540Y86066D01*
X-71533Y86096D01*
X-71527Y86127D01*
X-71523Y86158D01*
X-71521Y86189D01*
X-71520Y86221D01*
Y86614D01*
X-71521Y86646D01*
X-71523Y86677D01*
X-71527Y86708D01*
X-71533Y86739D01*
X-71540Y86769D01*
X-71549Y86799D01*
X-71559Y86829D01*
X-71571Y86858D01*
X-71585Y86886D01*
X-71600Y86913D01*
X-71616Y86940D01*
X-71634Y86966D01*
X-71653Y86991D01*
X-71673Y87015D01*
X-71695Y87037D01*
X-71718Y87059D01*
X-71741Y87079D01*
X-71766Y87098D01*
X-71792Y87116D01*
X-71819Y87132D01*
X-71846Y87147D01*
X-71875Y87161D01*
X-71904Y87173D01*
X-71933Y87183D01*
X-71963Y87192D01*
X-71994Y87199D01*
X-72025Y87205D01*
X-72056Y87209D01*
X-72087Y87212D01*
X-72118Y87213D01*
X-73587D01*
Y87787D01*
X-72110D01*
X-72079Y87788D01*
X-72048Y87791D01*
X-72018Y87795D01*
X-71987Y87800D01*
X-71957Y87808D01*
X-71928Y87816D01*
X-71899Y87827D01*
X-71870Y87839D01*
X-71842Y87852D01*
X-71815Y87866D01*
X-71789Y87883D01*
X-71763Y87900D01*
X-71739Y87919D01*
X-71715Y87939D01*
X-71693Y87960D01*
X-71671Y87983D01*
X-71651Y88006D01*
X-71632Y88031D01*
X-71615Y88056D01*
X-71599Y88083D01*
X-71584Y88110D01*
X-71571Y88138D01*
X-71559Y88166D01*
X-71549Y88196D01*
X-71540Y88225D01*
X-71533Y88255D01*
X-71527Y88286D01*
X-71523Y88316D01*
X-71521Y88347D01*
X-71520Y88378D01*
Y88784D01*
X-71521Y88815D01*
D02*
G37*
D13*
X-30000Y103000D02*
D03*
X-15000Y104500D02*
D03*
D14*
X-40000Y103000D02*
D03*
X-5000Y104500D02*
D03*
D15*
X0Y122178D02*
D03*
Y0D02*
D03*
D44*
X-30000Y30000D02*
D03*
Y26000D02*
D03*
X-8000Y31000D02*
D03*
Y27000D02*
D03*
X-75000Y54000D02*
D03*
Y58000D02*
D03*
X-74500Y75500D02*
D03*
Y71500D02*
D03*
X-72500Y104000D02*
D03*
Y100000D02*
D03*
X-76500Y104000D02*
D03*
Y100000D02*
D03*
X-51500Y101000D02*
D03*
Y105000D02*
D03*
X-89000Y71500D02*
D03*
Y75500D02*
D03*
X-80500Y104000D02*
D03*
Y100000D02*
D03*
X-92500Y104000D02*
D03*
Y100000D02*
D03*
X-79500Y71500D02*
D03*
Y75500D02*
D03*
X-84000Y71500D02*
D03*
Y75500D02*
D03*
X-50000Y87000D02*
D03*
Y91000D02*
D03*
X-45500Y87000D02*
D03*
Y91000D02*
D03*
X-66300Y97000D02*
D03*
Y93000D02*
D03*
X-61500Y97000D02*
D03*
Y93000D02*
D03*
X-56700Y97000D02*
D03*
Y93000D02*
D03*
X-57000Y81000D02*
D03*
Y85000D02*
D03*
X-52000Y83000D02*
D03*
Y79000D02*
D03*
X-61500Y81000D02*
D03*
Y85000D02*
D03*
X-66000Y81000D02*
D03*
Y85000D02*
D03*
X-47000Y83000D02*
D03*
Y79000D02*
D03*
X-42500Y83000D02*
D03*
Y79000D02*
D03*
X-101000Y93000D02*
D03*
Y97000D02*
D03*
X-100567Y82500D02*
D03*
Y78500D02*
D03*
X-95567Y82500D02*
D03*
Y78500D02*
D03*
X-96500Y93000D02*
D03*
Y97000D02*
D03*
D45*
X-24736Y30739D02*
D03*
X-24736Y23259D02*
D03*
X-14500Y23260D02*
D03*
X-14500Y27000D02*
D03*
X-14500Y30740D02*
D03*
D46*
X-56500Y61000D02*
D03*
D47*
X-67950Y68500D02*
D03*
Y63500D02*
D03*
Y58500D02*
D03*
Y53500D02*
D03*
X-45050D02*
D03*
Y58500D02*
D03*
Y63500D02*
D03*
Y68500D02*
D03*
D48*
X-12722Y92972D02*
D03*
Y52029D02*
D03*
D49*
X-23277Y58720D02*
D03*
Y60688D02*
D03*
Y62657D02*
D03*
Y64625D02*
D03*
Y66594D02*
D03*
Y68562D02*
D03*
Y70531D02*
D03*
Y72499D02*
D03*
Y74469D02*
D03*
Y76436D02*
D03*
Y78405D02*
D03*
Y80373D02*
D03*
Y82342D02*
D03*
Y84310D02*
D03*
Y86279D02*
D03*
D50*
X-73102Y84547D02*
D03*
Y90453D02*
D03*
X-90031Y84547D02*
D03*
Y90453D02*
D03*
D51*
X-80583Y81004D02*
D03*
X-82551D02*
D03*
X-84520D02*
D03*
X-86488D02*
D03*
X-88457D02*
D03*
X-78614D02*
D03*
X-76646D02*
D03*
X-74677D02*
D03*
X-80583Y93996D02*
D03*
X-82551D02*
D03*
X-84520D02*
D03*
X-86488D02*
D03*
X-88457D02*
D03*
X-78614D02*
D03*
X-76646D02*
D03*
X-74677D02*
D03*
D52*
X-81567Y87500D02*
D03*
D53*
X-101000Y67525D02*
D03*
Y52475D02*
D03*
D54*
X-86500Y54500D02*
D03*
X-90500D02*
D03*
X-86500Y62500D02*
D03*
X-90500D02*
D03*
X-86500Y58500D02*
D03*
X-90500D02*
D03*
X-86500Y66500D02*
D03*
X-90500D02*
D03*
X-75000Y67500D02*
D03*
X-79000D02*
D03*
X-36000Y49000D02*
D03*
X-40000D02*
D03*
Y45000D02*
D03*
X-36000D02*
D03*
X-51500Y74500D02*
D03*
X-55500D02*
D03*
X-28000Y49000D02*
D03*
X-32000D02*
D03*
Y45000D02*
D03*
X-28000D02*
D03*
X-40500Y20000D02*
D03*
X-44500D02*
D03*
X-63500Y101000D02*
D03*
X-67500D02*
D03*
X-63500Y105000D02*
D03*
X-67500D02*
D03*
X-55500D02*
D03*
X-59500D02*
D03*
X-55500Y101000D02*
D03*
X-59500D02*
D03*
X-101000Y102000D02*
D03*
X-97000D02*
D03*
X-84500Y104000D02*
D03*
X-88500D02*
D03*
Y100000D02*
D03*
X-84500D02*
D03*
D55*
X-80500Y60966D02*
D03*
Y55035D02*
D03*
D56*
X-51000Y41272D02*
D03*
Y23728D02*
D03*
D57*
X-90405Y40937D02*
D03*
X-86468D02*
D03*
X-82531D02*
D03*
X-78594D02*
D03*
D58*
X-69539Y33063D02*
D03*
X-99461D02*
D03*
M02*
