G04*
G04 #@! TF.GenerationSoftware,Altium Limited,Altium Designer,20.0.2 (26)*
G04*
G04 Layer_Physical_Order=3*
G04 Layer_Color=128*
%FSLAX25Y25*%
%MOIN*%
G70*
G01*
G75*
%ADD23C,0.04000*%
%ADD24C,0.08724*%
%ADD25C,0.11874*%
%ADD26C,0.05000*%
%ADD27C,0.04787*%
D23*
X-13458Y9360D02*
G03*
X-13780Y9374I-322J-3924D01*
G01*
X-9843Y5437D02*
G03*
X-13458Y9360I-3937J0D01*
G01*
X-9843Y-969D02*
G03*
X-6410Y-4873I3937J0D01*
G01*
D02*
G03*
X-5906Y-4905I505J3904D01*
G01*
X5906D02*
G03*
X9843Y-969I0J3937D01*
G01*
Y123016D02*
G03*
X5906Y126953I-3937J0D01*
G01*
X-5906D02*
G03*
X-7045Y126784I0J-3937D01*
G01*
D02*
G03*
X-9843Y123016I1140J-3768D01*
G01*
X-12793Y112799D02*
G03*
X-9843Y116611I-986J3811D01*
G01*
X-13780Y112674D02*
G03*
X-12793Y112799I0J3937D01*
G01*
X-109795Y112674D02*
G03*
X-111197Y112416I0J-3937D01*
G01*
D02*
G03*
X-113732Y108737I1402J-3679D01*
G01*
Y13311D02*
G03*
X-110266Y9402I3937J0D01*
G01*
D02*
G03*
X-109795Y9374I471J3909D01*
G01*
X-113732Y13311D02*
X-113732D01*
Y108737D01*
X-113732D02*
X-113732D01*
X-109795Y112674D02*
X-13780D01*
X-9843Y116611D02*
Y123016D01*
X-5906Y126953D02*
X5906D01*
X9843Y-969D02*
X9843Y123016D01*
X9843Y-969D02*
X9843D01*
X-5906Y-4905D02*
X5906D01*
X-9843Y-969D02*
Y5437D01*
X-109795Y9374D02*
X-13780D01*
D24*
X-30000Y103000D02*
D03*
X-40000D02*
D03*
X-5000Y104500D02*
D03*
X-15000D02*
D03*
D25*
X0Y122178D02*
D03*
Y0D02*
D03*
D26*
X-41000Y69000D02*
D03*
X-18000Y48000D02*
D03*
Y40500D02*
D03*
X-97000Y86000D02*
D03*
Y88000D02*
D03*
X0Y114000D02*
D03*
X-4500Y114500D02*
D03*
X5000D02*
D03*
Y105500D02*
D03*
Y95500D02*
D03*
X7500Y81500D02*
D03*
X4500Y68500D02*
D03*
X5500Y54500D02*
D03*
X7500Y47000D02*
D03*
X2000Y13000D02*
D03*
X-4000Y10500D02*
D03*
X-13000Y11500D02*
D03*
X-30500Y12500D02*
D03*
X-48000Y13000D02*
D03*
X-22500Y12000D02*
D03*
X-39500Y11500D02*
D03*
X-55000Y13000D02*
D03*
X-66500D02*
D03*
X-75500D02*
D03*
X-82500Y12500D02*
D03*
X-90500Y13000D02*
D03*
X-100000Y14000D02*
D03*
X-108000Y13500D02*
D03*
X-110000Y18500D02*
D03*
Y25500D02*
D03*
Y33500D02*
D03*
Y46000D02*
D03*
X-110500Y56500D02*
D03*
Y68000D02*
D03*
X-109000Y76000D02*
D03*
X-108500Y81500D02*
D03*
Y86000D02*
D03*
Y93000D02*
D03*
X-74000Y41500D02*
D03*
X-18210Y58118D02*
D03*
X-6000Y80000D02*
D03*
X-7500Y74000D02*
D03*
X-17000Y73000D02*
D03*
X-17500Y80000D02*
D03*
X-39000Y76000D02*
D03*
X-13000Y82310D02*
D03*
X-10000Y78000D02*
D03*
X-29500Y90000D02*
D03*
X-78500Y32000D02*
D03*
X-81104Y20150D02*
D03*
X-105500Y73500D02*
D03*
X-41000Y26500D02*
D03*
X-23500Y44000D02*
D03*
X-23000Y100500D02*
D03*
X-49000Y101000D02*
D03*
X-23000Y106000D02*
D03*
X-80500Y50500D02*
D03*
X-75000Y51500D02*
D03*
X-40500Y17000D02*
D03*
X-2000Y27000D02*
D03*
X-84000Y69000D02*
D03*
X-93500Y58500D02*
D03*
Y62500D02*
D03*
X-54000Y98000D02*
D03*
X-64000Y98500D02*
D03*
X-69500Y98000D02*
D03*
X-55500Y77000D02*
D03*
X-65500Y76000D02*
D03*
X-61500D02*
D03*
X-83500Y78000D02*
D03*
X-80000D02*
D03*
X-78038Y97790D02*
D03*
X-80500Y97000D02*
D03*
X-83500Y97500D02*
D03*
X-92500Y71000D02*
D03*
X-72500Y106000D02*
D03*
X-63500Y107500D02*
D03*
X-80500Y106500D02*
D03*
X-93000Y95000D02*
D03*
X-90500Y102000D02*
D03*
X-88500Y107000D02*
D03*
X-92500Y106500D02*
D03*
X-103500Y102000D02*
D03*
X-100500Y75500D02*
D03*
D27*
X-76547Y87500D02*
D03*
X-79500Y84449D02*
D03*
Y87500D02*
D03*
Y90551D02*
D03*
X-83634Y84449D02*
D03*
Y87500D02*
D03*
Y90551D02*
D03*
X-86587Y87500D02*
D03*
M02*
