M48
;Layer_Color=9474304
;FILE_FORMAT=2:5
INCH,LZ
;TYPE=PLATED
T1F00S00C0.00787
T2F00S00C0.01000
T3F00S00C0.04724
T4F00S00C0.07874
%
T01
X-0083634Y0084449
Y00875
X-0086587
X-0083634Y0090551
X-00795
Y00875
X-0076547
X-00795Y0084449
T02
X-0108Y00135
X-011Y00185
Y00255
Y00335
Y0046
X-01105Y00565
Y0068
X-0109Y0076
X-01085Y00815
Y0086
Y0093
X-01035Y0102
X-00975Y00995
X-0093Y0095
X-00905Y0102
X-00835Y00975
X-00805Y0097
X-0078038Y009779
X-00695Y0098
X-0064Y00985
X-0054Y0098
X-0049Y0101
X-00475Y00765
X-00555Y0077
X-00615Y0076
X-00655
X-008Y0078
X-00835
X-0084Y0069
X-00925Y0071
X-0093Y00785
X-01005Y00755
X-01055Y00735
X-0097Y0086
Y0088
X-00935Y00625
Y00585
X-00805Y00505
X-0075Y00515
X-0074Y00415
X-00785Y0032
X-0081104Y002015
X-00825Y00125
X-00755Y0013
X-00665
X-0055
X-0048
X-00395Y00115
X-00405Y0017
X-0041Y00265
X-00305Y00125
X-00225Y0012
X-0013Y00115
X-0004Y00105
X0002Y0013
X-0002Y0027
X-00095Y0036
X-0018Y00405
Y0048
X-00235Y0044
X-001821Y0058118
X-0017Y0073
X-00175Y008
X-0013Y008231
X-001Y0078
X-0006Y008
X-00075Y0074
X00045Y00685
X00055Y00545
X00075Y0047
X-0005Y00465
X00075Y00815
X0005Y00955
X-0023Y01005
X-00295Y009
X-0039Y0076
X-0041Y0069
X-00905Y0013
X-01Y0014
X-00925Y01065
X-00885Y0107
X-00805Y01065
X-00725Y0106
X-00635Y01075
X-0023Y0106
X-00045Y01145
X0Y0114
X0005Y01145
Y01055
T03
X-004Y0103
X-003
X-0015Y01045
X-0005
T04
X0Y0
Y0122178
M30
